<svg xmlns="http://www.w3.org/2000/svg" xmlns:xlink="http://www.w3.org/1999/xlink" width="114" zoomAndPan="magnify" viewBox="0 0 85.5 71.249999" height="95" preserveAspectRatio="xMidYMid meet" version="1.0"><defs><filter x="0%" y="0%" width="100%" height="100%" id="05e2eb11f6"><feColorMatrix values="0 0 0 0 1 0 0 0 0 1 0 0 0 0 1 0 0 0 1 0" color-interpolation-filters="sRGB"/></filter><clipPath id="2a34324112"><path d="M 64 7.050781 L 69.789062 7.050781 L 69.789062 13 L 64 13 Z M 64 7.050781 " clip-rule="nonzero"/></clipPath><clipPath id="d96674525f"><path d="M 45 8 L 69.789062 8 L 69.789062 39 L 45 39 Z M 45 8 " clip-rule="nonzero"/></clipPath><clipPath id="f474132ee2"><path d="M 15 16 L 51 16 L 51 60.488281 L 15 60.488281 Z M 15 16 " clip-rule="nonzero"/></clipPath><clipPath id="375cf69b68"><path d="M 22 17 L 51 17 L 51 60.488281 L 22 60.488281 Z M 22 17 " clip-rule="nonzero"/></clipPath><clipPath id="5075e40256"><path d="M 44 7.050781 L 69.789062 7.050781 L 69.789062 37 L 44 37 Z M 44 7.050781 " clip-rule="nonzero"/></clipPath><mask id="7a9e7121b3"><g filter="url(#05e2eb11f6)"><rect x="-8.55" width="102.6" fill="#000000" y="-7.125" height="85.499999" fill-opacity="0.6"/></g></mask><clipPath id="9f22e88c28"><rect x="0" width="5" y="0" height="13"/></clipPath></defs><path fill="#f04343" d="M 49.566406 38.007812 C 44.179688 37.984375 44.390625 32.417969 44.390625 32.417969 L 48.761719 31.464844 C 48.761719 31.703125 52.652344 32.628906 53.21875 32.84375 C 53.777344 33.054688 54.960938 38.035156 49.566406 38.007812 Z M 49.566406 38.007812 " fill-opacity="1" fill-rule="nonzero"/><g clip-path="url(#2a34324112)"><path fill="#f04343" d="M 69.777344 12.824219 L 64.511719 7.039062 C 69.566406 7.347656 69.777344 12.679688 69.777344 12.824219 Z M 69.777344 12.824219 " fill-opacity="1" fill-rule="nonzero"/></g><g clip-path="url(#d96674525f)"><path fill="#f04343" d="M 64.894531 38.03125 L 50.023438 38.03125 C 47.320312 38.03125 45.128906 35.824219 45.128906 33.101562 L 45.128906 13.148438 C 45.128906 10.429688 47.320312 8.222656 50.023438 8.222656 L 64.894531 8.222656 C 67.597656 8.222656 69.789062 10.429688 69.789062 13.148438 L 69.789062 33.101562 C 69.789062 35.824219 67.597656 38.03125 64.894531 38.03125 Z M 64.894531 38.03125 " fill-opacity="1" fill-rule="nonzero"/></g><g clip-path="url(#f474132ee2)"><path fill="#cbdbf4" d="M 50.175781 17.207031 L 50.082031 17.878906 L 49.828125 19.734375 C 49.757812 19.726562 43.046875 18.816406 36.476562 19.367188 C 33.96875 19.589844 32.292969 20.457031 31.769531 21.820312 C 31.1875 23.308594 31.972656 25.4375 33.875 27.511719 C 39.089844 33.242188 43.527344 43.023438 41.660156 51.992188 C 40.492188 57.585938 34.109375 60.425781 28.234375 60.425781 C 28.074219 60.425781 27.914062 60.425781 27.753906 60.417969 C 25.917969 60.367188 23.992188 60.027344 22.222656 59.320312 C 22.207031 59.320312 22.199219 59.320312 22.191406 59.3125 C 18.917969 57.984375 16.1875 55.40625 15.527344 51.097656 C 14.894531 46.972656 15.546875 43.558594 17.480469 40.960938 C 20.222656 37.285156 24.5 36.679688 24.683594 36.65625 L 25.015625 39.191406 C 24.980469 39.191406 21.574219 39.703125 19.492188 42.519531 C 17.996094 44.546875 17.507812 47.292969 18.03125 50.707031 C 18.816406 55.8125 23.601562 57.753906 27.820312 57.875 C 32.632812 57.984375 38.277344 55.796875 39.175781 51.464844 C 41.101562 42.238281 35.574219 33.15625 32.007812 29.242188 C 29.402344 26.390625 28.457031 23.34375 29.402344 20.890625 C 29.917969 19.546875 31.5 17.230469 36.265625 16.832031 C 43.125 16.246094 49.886719 17.164062 50.175781 17.207031 Z M 50.175781 17.207031 " fill-opacity="1" fill-rule="nonzero"/></g><g clip-path="url(#375cf69b68)"><path fill="#bbcfef" d="M 31.769531 21.820312 C 31.1875 23.308594 31.972656 25.4375 33.875 27.511719 C 39.089844 33.242188 43.527344 43.023438 41.660156 51.992188 C 40.492188 57.585938 34.109375 60.425781 28.234375 60.425781 C 28.074219 60.425781 27.914062 60.425781 27.753906 60.417969 C 25.917969 60.367188 23.992188 60.027344 22.222656 59.320312 C 23.527344 59.679688 24.863281 59.867188 26.164062 59.898438 C 26.324219 59.898438 26.484375 59.910156 26.644531 59.910156 C 32.523438 59.910156 38.90625 57.058594 40.070312 51.464844 C 41.941406 42.503906 37.507812 32.714844 32.285156 26.996094 C 31.558594 26.195312 29.628906 22.695312 30.179688 21.292969 C 30.703125 19.929688 32.378906 19.0625 34.898438 18.847656 C 41.457031 18.289062 48.171875 19.207031 48.238281 19.214844 L 50.082031 17.878906 L 49.828125 19.734375 C 49.757812 19.726562 43.046875 18.816406 36.476562 19.367188 C 33.96875 19.589844 32.292969 20.457031 31.769531 21.820312 Z M 31.769531 21.820312 " fill-opacity="1" fill-rule="nonzero"/></g><g clip-path="url(#5075e40256)"><path fill="#ee6365" d="M 64.128906 36.832031 L 49.257812 36.832031 C 46.554688 36.832031 44.363281 34.628906 44.363281 31.90625 L 44.363281 11.953125 C 44.363281 9.230469 46.554688 7.027344 49.257812 7.027344 L 64.128906 7.027344 C 66.832031 7.027344 69.023438 9.230469 69.023438 11.953125 L 69.023438 31.90625 C 69.023438 34.628906 66.832031 36.832031 64.128906 36.832031 Z M 64.128906 36.832031 " fill-opacity="1" fill-rule="nonzero"/></g><path fill="#4dcdf3" d="M 67.167969 11.835938 L 67.167969 27.128906 C 67.167969 28.746094 65.855469 30.058594 64.25 30.058594 L 55.382812 30.058594 C 54.191406 30.058594 53.167969 29.34375 52.710938 28.3125 C 52.550781 27.957031 52.464844 27.546875 52.464844 27.128906 L 52.464844 11.835938 C 52.464844 10.210938 53.765625 8.898438 55.382812 8.898438 L 64.25 8.898438 C 65.820312 8.898438 67.167969 10.171875 67.167969 11.835938 Z M 67.167969 11.835938 " fill-opacity="1" fill-rule="nonzero"/><path fill="#71d8f8" d="M 66.1875 25.921875 C 66.1875 27.546875 64.882812 28.859375 63.269531 28.859375 L 54.402344 28.859375 C 53.777344 28.859375 53.191406 28.664062 52.710938 28.3125 C 52.550781 27.957031 52.464844 27.546875 52.464844 27.128906 L 52.464844 11.835938 C 52.464844 10.210938 53.765625 8.898438 55.382812 8.898438 L 64.25 8.898438 C 64.875 8.898438 65.460938 9.101562 65.941406 9.445312 C 66.40625 10.53125 66.097656 10.320312 66.1875 25.921875 Z M 66.1875 25.921875 " fill-opacity="1" fill-rule="nonzero"/><path fill="#39c988" d="M 33.304688 42.558594 C 33.421875 43.902344 32.613281 45.171875 31.339844 45.585938 C 28.445312 46.53125 25.683594 47.226562 23.117188 47.519531 C 21.882812 47.675781 20.714844 46.9375 20.246094 45.796875 C 20.226562 45.765625 20.207031 45.726562 20.195312 45.6875 C 18.664062 41.648438 17.722656 37.539062 17.425781 33.347656 C 17.328125 32.042969 18.109375 30.835938 19.332031 30.402344 C 21.878906 29.492188 24.496094 28.890625 27.191406 28.582031 C 27.320312 28.566406 27.441406 28.554688 27.566406 28.539062 C 28.890625 28.402344 30.128906 29.195312 30.570312 30.457031 C 31.992188 34.421875 32.917969 38.449219 33.304688 42.558594 Z M 33.304688 42.558594 " fill-opacity="1" fill-rule="nonzero"/><path fill="#49e4a3" d="M 30.019531 40.890625 C 30.136719 42.234375 29.328125 43.503906 28.054688 43.917969 C 25.320312 44.816406 22.695312 45.488281 20.246094 45.796875 C 20.226562 45.765625 20.207031 45.726562 20.195312 45.6875 C 18.664062 41.648438 17.722656 37.539062 17.425781 33.347656 C 17.328125 32.042969 18.109375 30.835938 19.332031 30.402344 C 21.878906 29.492188 24.496094 28.890625 27.191406 28.582031 C 27.234375 28.652344 27.265625 28.71875 27.289062 28.789062 C 28.710938 32.742188 29.636719 36.78125 30.019531 40.890625 Z M 30.019531 40.890625 " fill-opacity="1" fill-rule="nonzero"/><path fill="#bbcfef" d="M 55.8125 33.4375 C 55.8125 34.324219 55.09375 35.046875 54.207031 35.046875 L 49.910156 35.046875 C 49.191406 35.046875 48.59375 34.578125 48.390625 33.929688 C 48.332031 33.777344 48.304688 33.609375 48.304688 33.4375 C 48.304688 32.535156 49.023438 31.8125 49.910156 31.8125 L 54.207031 31.8125 C 55.007812 31.8125 55.8125 32.476562 55.8125 33.4375 Z M 55.8125 33.4375 " fill-opacity="1" fill-rule="nonzero"/><path fill="#eef5ff" d="M 53.707031 34.304688 L 49.414062 34.304688 C 49.023438 34.304688 48.667969 34.167969 48.390625 33.929688 C 48.332031 33.777344 48.304688 33.609375 48.304688 33.4375 C 48.304688 32.535156 49.023438 31.8125 49.910156 31.8125 L 54.207031 31.8125 C 54.585938 31.8125 54.933594 31.949219 55.210938 32.1875 C 55.597656 33.058594 54.882812 34.304688 53.707031 34.304688 Z M 53.707031 34.304688 " fill-opacity="1" fill-rule="nonzero"/><path fill="#bbcfef" d="M 65.945312 33.4375 C 65.945312 34.324219 65.226562 35.046875 64.339844 35.046875 L 60.046875 35.046875 C 59.128906 35.046875 58.4375 34.289062 58.4375 33.4375 C 58.4375 32.535156 59.15625 31.8125 60.046875 31.8125 L 64.339844 31.8125 C 65.140625 31.8125 65.945312 32.476562 65.945312 33.4375 Z M 65.945312 33.4375 " fill-opacity="1" fill-rule="nonzero"/><path fill="#eef5ff" d="M 63.839844 34.304688 L 59.546875 34.304688 C 59.15625 34.304688 58.804688 34.167969 58.523438 33.929688 C 58.167969 33.007812 58.886719 31.8125 60.046875 31.8125 L 64.339844 31.8125 C 64.722656 31.8125 65.066406 31.949219 65.347656 32.1875 C 65.730469 33.058594 65.015625 34.304688 63.839844 34.304688 Z M 63.839844 34.304688 " fill-opacity="1" fill-rule="nonzero"/><path fill="#ffffff" d="M 49.667969 15.039062 L 47.503906 15.039062 C 47.152344 15.039062 46.871094 14.75 46.871094 14.398438 C 46.871094 14.046875 47.152344 13.761719 47.503906 13.761719 L 49.667969 13.761719 C 50.019531 13.761719 50.300781 14.046875 50.300781 14.398438 C 50.300781 14.75 50.019531 15.039062 49.667969 15.039062 Z M 49.667969 15.039062 " fill-opacity="1" fill-rule="nonzero"/><path fill="#ffffff" d="M 49.667969 20.117188 L 47.503906 20.117188 C 47.152344 20.117188 46.871094 19.832031 46.871094 19.480469 C 46.871094 19.128906 47.152344 18.839844 47.503906 18.839844 L 49.667969 18.839844 C 50.019531 18.839844 50.300781 19.128906 50.300781 19.480469 C 50.300781 19.832031 50.019531 20.117188 49.667969 20.117188 Z M 49.667969 20.117188 " fill-opacity="1" fill-rule="nonzero"/><path fill="#ffffff" d="M 49.667969 25.199219 L 47.503906 25.199219 C 47.152344 25.199219 46.871094 24.914062 46.871094 24.558594 C 46.871094 24.207031 47.152344 23.921875 47.503906 23.921875 L 49.667969 23.921875 C 50.019531 23.921875 50.300781 24.207031 50.300781 24.558594 C 50.300781 24.914062 50.019531 25.199219 49.667969 25.199219 Z M 49.667969 25.199219 " fill-opacity="1" fill-rule="nonzero"/><path fill="#ffffff" d="M 64.085938 24.015625 L 59.960938 24.015625 C 59.609375 24.015625 59.324219 23.730469 59.324219 23.378906 C 59.324219 23.027344 59.609375 22.742188 59.960938 22.742188 L 64.085938 22.742188 C 64.4375 22.742188 64.722656 23.027344 64.722656 23.378906 C 64.722656 23.730469 64.4375 24.015625 64.085938 24.015625 Z M 64.085938 24.015625 " fill-opacity="1" fill-rule="nonzero"/><path fill="#ffffff" d="M 55.878906 13.710938 C 55.976562 13.710938 56.023438 13.753906 56.023438 13.847656 L 56.023438 18.175781 C 56.023438 18.265625 55.976562 18.308594 55.882812 18.308594 L 55.628906 18.308594 C 55.539062 18.308594 55.492188 18.265625 55.492188 18.175781 L 55.492188 14.3125 C 55.402344 14.355469 55.140625 14.488281 55.042969 14.488281 C 54.992188 14.488281 54.964844 14.460938 54.964844 14.402344 L 54.964844 14.09375 C 54.964844 14.03125 54.984375 13.992188 55.066406 13.953125 C 55.070312 13.953125 55.578125 13.71875 55.585938 13.71875 C 55.601562 13.710938 55.617188 13.710938 55.636719 13.710938 Z M 55.878906 13.710938 " fill-opacity="1" fill-rule="nonzero"/><path fill="#ffffff" d="M 57.121094 18.308594 C 57.035156 18.308594 56.976562 18.242188 56.976562 18.160156 L 56.976562 17.917969 C 56.976562 17.894531 56.984375 17.867188 56.996094 17.839844 L 59.09375 15.773438 C 59.375 15.492188 59.4375 15.300781 59.4375 15.066406 C 59.4375 14.140625 58.078125 13.859375 57.566406 14.667969 C 57.53125 14.722656 57.429688 14.765625 57.390625 14.71875 L 57.160156 14.527344 C 57.101562 14.46875 57.140625 14.398438 57.1875 14.324219 C 57.992188 13.324219 59.429688 13.574219 59.863281 14.484375 C 60.082031 14.945312 60.011719 15.605469 59.574219 16.042969 C 59.289062 16.332031 57.902344 17.664062 57.777344 17.785156 L 59.871094 17.785156 C 59.957031 17.785156 60.019531 17.828125 60.019531 17.917969 L 60.019531 18.164062 C 60.019531 18.234375 59.957031 18.308594 59.871094 18.308594 Z M 57.121094 18.308594 " fill-opacity="1" fill-rule="nonzero"/><path fill="#ffffff" d="M 63.007812 13.648438 C 64.320312 13.648438 65.355469 14.722656 65.355469 16.019531 C 65.355469 17.328125 64.308594 18.378906 63.003906 18.378906 C 61.722656 18.378906 60.65625 17.339844 60.65625 16.015625 C 60.65625 14.691406 61.726562 13.648438 63.007812 13.648438 Z M 61.191406 16.011719 C 61.191406 17.023438 61.996094 17.84375 63.007812 17.84375 C 64.035156 17.84375 64.820312 16.996094 64.820312 16.011719 C 64.820312 15.003906 64.003906 14.1875 63.007812 14.1875 C 62.027344 14.1875 61.191406 14.980469 61.191406 16.011719 Z M 61.191406 16.011719 " fill-opacity="1" fill-rule="nonzero"/><g mask="url(#7a9e7121b3)"><g transform="matrix(1, 0, 0, 1, 25, 31)"><g clip-path="url(#9f22e88c28)"><path fill="#ffffff" d="M 2.5625 4.722656 C 2.6875 4.742188 2.707031 4.492188 2.679688 4.246094 C 2.628906 3.800781 2.488281 3.296875 2.289062 2.816406 C 2.082031 2.320312 1.820312 1.792969 1.511719 1.484375 C 1.273438 1.234375 1.167969 1.4375 1.238281 1.820312 C 1.390625 2.578125 1.730469 3.402344 2.105469 4.144531 C 2.238281 4.410156 2.414062 4.699219 2.5625 4.722656 Z M 2.5625 4.722656 " fill-opacity="1" fill-rule="nonzero"/><path fill="#ffffff" d="M 3.171875 11.484375 C 3.40625 10.894531 3.527344 10.0625 3.53125 9.15625 C 3.527344 8.222656 3.445312 7.148438 3.121094 6.226562 C 2.859375 5.503906 2.523438 5.535156 2.375 6.101562 C 2.085938 7.234375 2.078125 8.773438 2.203125 10.308594 C 2.246094 10.84375 2.347656 11.5 2.585938 11.789062 C 2.820312 12.058594 3.035156 11.808594 3.171875 11.484375 Z M 3.171875 11.484375 " fill-opacity="1" fill-rule="nonzero"/></g></g></g><path fill="#bbcfef" d="M 18.773438 43.703125 C 17.890625 43.066406 17.441406 42.265625 17.175781 41.394531 C 17.554688 40.832031 17.96875 40.324219 18.414062 39.867188 L 19.234375 42.894531 Z M 18.773438 43.703125 " fill-opacity="1" fill-rule="nonzero"/></svg>