<svg xmlns="http://www.w3.org/2000/svg" xmlns:xlink="http://www.w3.org/1999/xlink" width="114" zoomAndPan="magnify" viewBox="0 0 85.5 71.249999" height="95" preserveAspectRatio="xMidYMid meet" version="1.0"><defs><clipPath id="501162852c"><path d="M 16.242188 34 L 31 34 L 31 57.304688 L 16.242188 57.304688 Z M 16.242188 34 " clip-rule="nonzero"/></clipPath><clipPath id="3814053e46"><path d="M 44 32 L 64 32 L 64 57.304688 L 44 57.304688 Z M 44 32 " clip-rule="nonzero"/></clipPath><clipPath id="0d1cd2aca9"><path d="M 54 34 L 68.9375 34 L 68.9375 57.304688 L 54 57.304688 Z M 54 34 " clip-rule="nonzero"/></clipPath><clipPath id="32d1f73130"><path d="M 20 31 L 39 31 L 39 57.304688 L 20 57.304688 Z M 20 31 " clip-rule="nonzero"/></clipPath></defs><g clip-path="url(#501162852c)"><path fill="#009444" d="M 25.652344 55.664062 L 25.652344 54.4375 L 29.640625 55.664062 C 29.332031 55.816406 29.121094 56.132812 29.121094 56.5 C 29.121094 57.011719 29.539062 57.429688 30.054688 57.429688 C 30.570312 57.429688 30.988281 57.011719 30.988281 56.5 C 30.988281 56.132812 30.773438 55.816406 30.464844 55.664062 L 30.464844 55.058594 L 25.652344 53.578125 L 25.652344 50.113281 L 26.351562 50.113281 L 26.351562 49.820312 C 28.796875 49.660156 30.628906 48.980469 30.628906 48.164062 C 30.628906 47.371094 22.933594 47.25 20.550781 47.796875 L 18.707031 42.882812 C 19.492188 44.109375 20.304688 44.804688 20.847656 44.601562 C 21.726562 44.273438 17.9375 34.183594 17.0625 34.511719 C 16.347656 34.78125 16.304688 36.507812 16.882812 38.644531 C 16.816406 38.636719 16.75 38.640625 16.683594 38.667969 C 16.472656 38.746094 16.363281 38.984375 16.441406 39.195312 L 19.875 48.335938 C 19.882812 48.359375 19.894531 48.382812 19.910156 48.40625 C 20.230469 49.113281 21.933594 49.675781 24.132812 49.820312 L 24.132812 50.113281 L 24.832031 50.113281 L 24.832031 53.578125 L 20.019531 55.058594 L 20.019531 55.664062 C 19.710938 55.816406 19.496094 56.132812 19.496094 56.5 C 19.496094 57.011719 19.914062 57.429688 20.429688 57.429688 C 20.945312 57.429688 21.363281 57.011719 21.363281 56.5 C 21.363281 56.132812 21.152344 55.816406 20.84375 55.664062 L 24.832031 54.4375 L 24.832031 55.664062 C 24.523438 55.816406 24.308594 56.132812 24.308594 56.5 C 24.308594 57.015625 24.726562 57.429688 25.242188 57.429688 C 25.757812 57.429688 26.175781 57.015625 26.175781 56.5 C 26.175781 56.132812 25.960938 55.816406 25.652344 55.664062 Z M 25.652344 55.664062 " fill-opacity="1" fill-rule="nonzero"/></g><path fill="#009444" d="M 58.445312 27.933594 C 58.445312 28.421875 58.351562 28.894531 58.164062 29.347656 C 57.976562 29.800781 57.707031 30.203125 57.359375 30.550781 C 57.015625 30.898438 56.613281 31.164062 56.160156 31.351562 C 55.707031 31.539062 55.234375 31.632812 54.742188 31.632812 C 54.253906 31.632812 53.78125 31.539062 53.328125 31.351562 C 52.875 31.164062 52.472656 30.898438 52.125 30.550781 C 51.777344 30.203125 51.511719 29.800781 51.324219 29.347656 C 51.136719 28.894531 51.042969 28.421875 51.042969 27.933594 C 51.042969 27.441406 51.136719 26.96875 51.324219 26.515625 C 51.511719 26.0625 51.777344 25.664062 52.125 25.316406 C 52.472656 24.96875 52.875 24.699219 53.328125 24.511719 C 53.78125 24.324219 54.253906 24.230469 54.742188 24.230469 C 55.234375 24.230469 55.707031 24.324219 56.160156 24.511719 C 56.613281 24.699219 57.015625 24.96875 57.359375 25.316406 C 57.707031 25.664062 57.976562 26.0625 58.164062 26.515625 C 58.351562 26.96875 58.445312 27.441406 58.445312 27.933594 Z M 58.445312 27.933594 " fill-opacity="1" fill-rule="nonzero"/><g clip-path="url(#3814053e46)"><path fill="#009444" d="M 59.632812 46.738281 C 59.839844 46.734375 60.042969 46.699219 60.230469 46.636719 C 60.28125 46.625 60.328125 46.617188 60.378906 46.605469 C 61.855469 46.285156 63.5625 45.613281 63.46875 42.917969 C 63.066406 39.261719 62.347656 37.207031 60.511719 34.226562 C 59.164062 32.0625 57.011719 31.773438 55.71875 32.429688 C 55.695312 32.445312 55.675781 32.460938 55.652344 32.472656 C 55.480469 32.539062 55.320312 32.644531 55.183594 32.785156 L 51.863281 36.261719 L 45.738281 34.839844 C 45.03125 34.675781 44.324219 35.117188 44.160156 35.824219 C 43.996094 36.53125 44.433594 37.242188 45.144531 37.40625 L 49.636719 38.449219 L 52.824219 38.449219 L 57.03125 33.792969 C 57.351562 33.4375 57.808594 33.234375 58.289062 33.234375 C 58.710938 33.234375 59.113281 33.386719 59.425781 33.667969 C 59.761719 33.972656 59.957031 34.390625 59.980469 34.839844 C 60.003906 35.292969 59.847656 35.726562 59.546875 36.0625 L 56.390625 39.554688 C 56.800781 40.535156 57.183594 41.578125 57.460938 42.625 L 51.570312 42.625 C 50.636719 42.625 49.816406 43.257812 49.582031 44.164062 L 46.730469 55.089844 C 46.445312 56.1875 47.105469 57.308594 48.203125 57.597656 C 48.375 57.640625 48.550781 57.664062 48.722656 57.664062 C 49.636719 57.664062 50.46875 57.050781 50.710938 56.125 L 53.160156 46.738281 L 59.113281 46.738281 C 59.269531 46.761719 59.441406 46.757812 59.632812 46.738281 Z M 59.632812 46.738281 " fill-opacity="1" fill-rule="nonzero"/></g><g clip-path="url(#0d1cd2aca9)"><path fill="#009444" d="M 68.328125 38.667969 C 68.261719 38.640625 68.195312 38.636719 68.128906 38.644531 C 68.707031 36.507812 68.664062 34.78125 67.953125 34.511719 C 67.074219 34.183594 63.289062 44.273438 64.164062 44.601562 C 64.710938 44.804688 65.519531 44.109375 66.304688 42.882812 L 64.460938 47.796875 C 62.078125 47.25 54.382812 47.371094 54.382812 48.164062 C 54.382812 48.980469 56.21875 49.660156 58.660156 49.820312 L 58.660156 50.113281 L 59.359375 50.113281 L 59.359375 53.574219 L 54.546875 55.058594 L 54.546875 55.664062 C 54.238281 55.816406 54.027344 56.132812 54.027344 56.5 C 54.027344 57.011719 54.441406 57.429688 54.957031 57.429688 C 55.472656 57.429688 55.890625 57.011719 55.890625 56.5 C 55.890625 56.132812 55.679688 55.816406 55.371094 55.664062 L 59.359375 54.4375 L 59.359375 55.664062 C 59.050781 55.816406 58.839844 56.132812 58.839844 56.5 C 58.839844 57.011719 59.253906 57.429688 59.769531 57.429688 C 60.285156 57.429688 60.703125 57.011719 60.703125 56.5 C 60.703125 56.132812 60.488281 55.816406 60.183594 55.664062 L 60.183594 54.4375 L 64.167969 55.664062 C 63.863281 55.816406 63.648438 56.132812 63.648438 56.5 C 63.648438 57.011719 64.066406 57.429688 64.582031 57.429688 C 65.097656 57.429688 65.515625 57.011719 65.515625 56.5 C 65.515625 56.132812 65.300781 55.816406 64.992188 55.664062 L 64.992188 55.058594 L 60.183594 53.574219 L 60.183594 50.113281 L 60.882812 50.113281 L 60.882812 49.820312 C 63.078125 49.675781 64.78125 49.109375 65.101562 48.40625 C 65.117188 48.382812 65.128906 48.359375 65.136719 48.335938 L 68.570312 39.195312 C 68.648438 38.984375 68.542969 38.746094 68.328125 38.667969 Z M 68.328125 38.667969 " fill-opacity="1" fill-rule="nonzero"/></g><path fill="#009444" d="M 59.171875 33.949219 C 58.632812 33.464844 57.796875 33.503906 57.3125 34.046875 L 52.992188 38.824219 L 46.476562 38.824219 C 45.75 38.824219 45.160156 39.414062 45.160156 40.140625 C 45.160156 40.871094 45.75 41.457031 46.476562 41.457031 L 53.578125 41.457031 C 53.949219 41.457031 54.304688 41.300781 54.554688 41.023438 L 59.265625 35.808594 C 59.753906 35.269531 59.710938 34.4375 59.171875 33.949219 Z M 59.171875 33.949219 " fill-opacity="1" fill-rule="nonzero"/><path fill="#009444" d="M 23.234375 31.179688 C 23.671875 31.175781 24.117188 31.09375 24.546875 30.929688 C 26.453125 30.1875 27.402344 28.042969 26.660156 26.136719 C 26.347656 25.328125 25.78125 24.695312 25.085938 24.285156 C 24.144531 23.734375 22.96875 23.597656 21.871094 24.023438 C 19.964844 24.761719 19.019531 26.90625 19.757812 28.8125 C 20.332031 30.289062 21.742188 31.1875 23.234375 31.179688 Z M 23.234375 31.179688 " fill-opacity="1" fill-rule="nonzero"/><path fill="#009444" d="M 36.671875 45.113281 C 37.347656 44.851562 37.6875 44.089844 37.429688 43.410156 C 36.316406 40.507812 31.449219 40.40625 29.390625 40.496094 L 24.71875 34.71875 C 24.261719 34.152344 23.433594 34.066406 22.867188 34.523438 C 22.304688 34.980469 22.214844 35.808594 22.671875 36.375 L 27.421875 42.25 L 33.441406 42.25 C 34.550781 42.25 35.519531 42.996094 35.796875 44.070312 L 36.089844 45.191406 C 36.125 45.195312 36.164062 45.199219 36.199219 45.199219 C 36.355469 45.199219 36.515625 45.171875 36.671875 45.113281 Z M 36.671875 45.113281 " fill-opacity="1" fill-rule="nonzero"/><g clip-path="url(#32d1f73130)"><path fill="#009444" d="M 34.300781 56.125 C 34.542969 57.050781 35.375 57.664062 36.289062 57.664062 C 36.460938 57.664062 36.636719 57.640625 36.808594 57.597656 C 37.910156 57.308594 38.566406 56.1875 38.28125 55.089844 L 35.429688 44.164062 C 35.195312 43.257812 34.378906 42.625 33.441406 42.625 L 26.273438 42.625 L 26.273438 42.246094 L 26.9375 42.246094 L 22.378906 36.613281 C 22.09375 36.261719 21.964844 35.820312 22.011719 35.367188 C 22.058594 34.917969 22.277344 34.511719 22.628906 34.230469 C 22.929688 33.984375 23.308594 33.851562 23.695312 33.851562 C 24.210938 33.851562 24.691406 34.082031 25.015625 34.480469 L 26.140625 35.875 C 26.09375 35.585938 26.042969 35.308594 25.996094 35.046875 C 25.847656 33.347656 24.5625 31.746094 23.125 31.925781 C 21.691406 32.109375 20.066406 33.554688 20.164062 36.101562 C 20.320312 39.601562 20.878906 41.699219 22.59375 44.953125 C 23.324219 46.117188 24.148438 46.582031 24.960938 46.6875 C 25.109375 46.71875 25.261719 46.738281 25.421875 46.738281 L 31.851562 46.738281 Z M 34.300781 56.125 " fill-opacity="1" fill-rule="nonzero"/></g><path fill="#009444" d="M 46.589844 23.34375 L 49.996094 24.832031 L 47.40625 21.992188 C 48.269531 20.164062 48.429688 18.007812 47.683594 15.960938 C 46.203125 11.898438 41.707031 9.804688 37.644531 11.285156 C 33.578125 12.765625 31.484375 17.261719 32.96875 21.328125 C 34.449219 25.390625 38.945312 27.484375 43.007812 26.003906 C 44.492188 25.460938 45.710938 24.519531 46.589844 23.34375 Z M 43.582031 21.203125 L 36.863281 21.203125 L 36.863281 20.503906 L 43.582031 20.503906 Z M 43.582031 19.042969 L 36.863281 19.042969 L 36.863281 18.34375 L 43.582031 18.34375 Z M 43.582031 16.878906 L 36.863281 16.878906 L 36.863281 16.179688 L 43.582031 16.179688 Z M 43.582031 16.878906 " fill-opacity="1" fill-rule="nonzero"/></svg>