<svg xmlns="http://www.w3.org/2000/svg" xmlns:xlink="http://www.w3.org/1999/xlink" width="114" zoomAndPan="magnify" viewBox="0 0 85.5 71.249999" height="95" preserveAspectRatio="xMidYMid meet" version="1.0"><defs><clipPath id="45dc174909"><path d="M 34 62 L 43 62 L 43 66.675781 L 34 66.675781 Z M 34 62 " clip-rule="nonzero"/></clipPath><clipPath id="6af37bdb82"><path d="M 34 65 L 43 65 L 43 66.675781 L 34 66.675781 Z M 34 65 " clip-rule="nonzero"/></clipPath><clipPath id="802b3ba00b"><path d="M 23 62 L 32 62 L 32 66.675781 L 23 66.675781 Z M 23 62 " clip-rule="nonzero"/></clipPath><clipPath id="031f707939"><path d="M 23 65 L 32 65 L 32 66.675781 L 23 66.675781 Z M 23 65 " clip-rule="nonzero"/></clipPath><clipPath id="f00accf03b"><path d="M 35 17 L 63.632812 17 L 63.632812 41 L 35 41 Z M 35 17 " clip-rule="nonzero"/></clipPath><clipPath id="cdc58bb78f"><path d="M 21.328125 20 L 27 20 L 27 31 L 21.328125 31 Z M 21.328125 20 " clip-rule="nonzero"/></clipPath><clipPath id="c5316f92a2"><path d="M 21.328125 17 L 27 17 L 27 28 L 21.328125 28 Z M 21.328125 17 " clip-rule="nonzero"/></clipPath><clipPath id="0b51a2c5a6"><path d="M 21.328125 29 L 33 29 L 33 33 L 21.328125 33 Z M 21.328125 29 " clip-rule="nonzero"/></clipPath></defs><path fill="#f78f89" d="M 36.609375 18.429688 C 38.199219 19.828125 42.652344 24.792969 42.652344 24.792969 C 42.652344 24.792969 47.121094 21.988281 48.25 21.582031 C 49.027344 21.304688 49.441406 22.296875 48.921875 22.898438 C 48.398438 23.503906 43.707031 28.597656 42.367188 28.597656 C 41.625 28.597656 36.757812 25.398438 36.757812 25.398438 L 36.609375 18.429688 " fill-opacity="1" fill-rule="nonzero"/><g clip-path="url(#45dc174909)"><path fill="#502f33" d="M 34.335938 62.601562 C 34.335938 62.601562 33.917969 65.382812 34.277344 66.027344 C 34.640625 66.671875 37.925781 65.9375 38.292969 66.105469 C 38.292969 66.105469 41.511719 66.59375 41.878906 66.167969 C 42.210938 65.785156 42.640625 65.148438 41.238281 64.558594 C 39.835938 63.96875 37.890625 63.386719 37.382812 62.660156 C 36.875 61.933594 34.335938 62.601562 34.335938 62.601562 " fill-opacity="1" fill-rule="nonzero"/></g><path fill="#3a2326" d="M 36.71875 63.285156 C 36.71875 63.285156 39.359375 64.730469 39.667969 64.558594 C 39.980469 64.382812 39.820312 64.269531 39.675781 64.078125 C 39.535156 63.890625 38.070312 63.421875 37.550781 62.785156 C 37.03125 62.144531 36.71875 63.285156 36.71875 63.285156 " fill-opacity="1" fill-rule="nonzero"/><g clip-path="url(#6af37bdb82)"><path fill="#4b292d" d="M 34.167969 65.621094 C 34.191406 65.792969 34.226562 65.933594 34.277344 66.027344 C 34.640625 66.671875 37.925781 65.9375 38.292969 66.105469 C 38.292969 66.105469 41.511719 66.59375 41.878906 66.167969 C 41.988281 66.042969 42.105469 65.894531 42.167969 65.726562 C 41.484375 65.757812 39.113281 65.855469 37.976562 65.628906 C 36.757812 65.390625 34.882812 65.804688 34.167969 65.621094 " fill-opacity="1" fill-rule="nonzero"/></g><g clip-path="url(#802b3ba00b)"><path fill="#63373a" d="M 24.082031 62.519531 C 24.082031 62.519531 23.632812 65.292969 23.984375 65.941406 C 24.339844 66.59375 27.632812 65.902344 28 66.074219 C 28 66.074219 31.214844 66.601562 31.585938 66.179688 C 31.921875 65.804688 32.359375 65.171875 30.960938 64.5625 C 29.566406 63.953125 27.628906 63.351562 27.128906 62.617188 C 26.628906 61.882812 24.082031 62.519531 24.082031 62.519531 " fill-opacity="1" fill-rule="nonzero"/></g><path fill="#4f2c30" d="M 26.457031 63.230469 C 26.457031 63.230469 29.082031 64.710938 29.394531 64.542969 C 29.703125 64.371094 29.546875 64.257812 29.40625 64.0625 C 29.265625 63.871094 27.808594 63.386719 27.296875 62.742188 C 26.785156 62.097656 26.457031 63.230469 26.457031 63.230469 " fill-opacity="1" fill-rule="nonzero"/><g clip-path="url(#031f707939)"><path fill="#4b292d" d="M 23.878906 65.535156 C 23.898438 65.707031 23.933594 65.847656 23.984375 65.941406 C 24.339844 66.59375 27.632812 65.902344 28 66.074219 C 28 66.074219 31.214844 66.601562 31.585938 66.179688 C 31.695312 66.058594 31.8125 65.910156 31.878906 65.742188 C 31.195312 65.765625 28.824219 65.832031 27.691406 65.59375 C 26.472656 65.335938 24.59375 65.730469 23.878906 65.535156 " fill-opacity="1" fill-rule="nonzero"/></g><path fill="#53b8a2" d="M 24.792969 34.761719 L 36.726562 34.761719 C 37.765625 39.957031 38.089844 59.054688 37.902344 62.554688 C 37.867188 63.210938 33.847656 62.746094 33.847656 62.746094 C 33.777344 51.253906 31.597656 41.78125 31.597656 41.78125 C 31.597656 41.78125 28.464844 59.875 27.863281 62.667969 C 27.667969 63.59375 23.507812 62.5625 23.507812 62.5625 C 23.507812 62.5625 24.714844 52.628906 24.785156 47.816406 C 24.785156 47.816406 24.746094 41.484375 24.792969 34.761719 " fill-opacity="1" fill-rule="nonzero"/><path fill="#4e6da2" d="M 36.648438 17.671875 L 41.164062 22.746094 C 41.164062 22.746094 40.941406 26.71875 39.378906 27.679688 L 36.257812 25.40625 C 36.257812 25.40625 36.597656 18.496094 36.648438 17.671875 " fill-opacity="1" fill-rule="nonzero"/><path fill="#7b402f" d="M 29.117188 10.132812 C 29.117188 10.132812 29.222656 11.890625 29.554688 12.410156 C 29.886719 12.933594 29.988281 10.707031 29.988281 10.707031 L 29.117188 10.132812 " fill-opacity="1" fill-rule="nonzero"/><path fill="#6fcebf" d="M 24.523438 37.46875 L 25.011719 17.355469 L 29.710938 15.363281 C 29.710938 15.363281 32.09375 15.519531 33.378906 15.953125 C 33.699219 16.058594 36.609375 17.210938 36.648438 17.671875 C 36.859375 19.945312 37.464844 27.8125 37.464844 37.828125 C 37.464844 37.828125 32.222656 39.441406 24.523438 37.46875 " fill-opacity="1" fill-rule="nonzero"/><g clip-path="url(#f00accf03b)"><path fill="#5186b7" d="M 63.632812 40.539062 L 35.039062 40.539062 L 35.039062 17.664062 L 63.632812 17.664062 L 63.632812 40.539062 " fill-opacity="1" fill-rule="nonzero"/></g><path fill="#ffffff" d="M 62.671875 39.210938 L 36.160156 39.210938 L 36.160156 18.890625 L 62.671875 18.890625 L 62.671875 39.210938 " fill-opacity="1" fill-rule="nonzero"/><path fill="#4f9e94" d="M 25.632812 19.65625 L 25.269531 19.65625 L 24.9375 20.417969 L 24.644531 32.390625 C 27.949219 27.289062 25.632812 19.65625 25.632812 19.65625 " fill-opacity="1" fill-rule="nonzero"/><path fill="#e47a79" d="M 29.703125 10.609375 C 29.703125 10.609375 29.453125 13.800781 29.265625 15.363281 C 29.21875 15.757812 30.367188 18.878906 31.746094 18.890625 C 32.621094 18.898438 32.933594 15.953125 32.933594 15.953125 L 32.84375 13.03125 L 29.703125 10.609375 " fill-opacity="1" fill-rule="nonzero"/><path fill="#f78f89" d="M 36.152344 9.101562 C 36.152344 9.101562 36.46875 15.199219 32.972656 14.578125 C 29.746094 14.003906 29.621094 10.792969 29.726562 8.421875 C 29.832031 6.050781 32.007812 5.148438 32.972656 5.148438 C 33.941406 5.148438 36.144531 6.03125 36.152344 9.101562 " fill-opacity="1" fill-rule="nonzero"/><path fill="#f78f89" d="M 29.988281 9.46875 C 29.988281 9.46875 29.621094 8.734375 29.09375 8.957031 C 28.566406 9.183594 28.988281 11.441406 29.988281 10.707031 C 30.992188 9.976562 29.988281 9.46875 29.988281 9.46875 " fill-opacity="1" fill-rule="nonzero"/><g clip-path="url(#cdc58bb78f)"><path fill="#f78f89" d="M 24.792969 30.304688 C 25.238281 27.441406 25.847656 23.175781 26.175781 22.234375 C 26.175781 22.234375 23.027344 20.746094 22.460938 20.804688 C 22.460938 20.804688 22.042969 25.90625 21.828125 30.304688 L 24.792969 30.304688 " fill-opacity="1" fill-rule="nonzero"/></g><path fill="#f78f89" d="M 35.804688 27.847656 C 35.175781 28.042969 34.609375 28.253906 34.609375 28.253906 C 34.609375 28.253906 35.277344 27.304688 34.945312 27.339844 C 34.613281 27.375 32.453125 29.515625 31.746094 29.988281 L 32.621094 30.859375 C 32.621094 30.859375 35.128906 30.644531 35.726562 30.46875 C 35.90625 30.417969 36.164062 30.347656 36.4375 30.269531 C 36.4375 30.269531 36.800781 30.066406 36.550781 29.707031 C 36.550781 29.707031 36.738281 29.261719 36.386719 28.949219 C 36.386719 28.949219 36.515625 28.476562 36.207031 28.289062 C 36.207031 28.289062 36.425781 27.734375 35.804688 27.847656 " fill-opacity="1" fill-rule="nonzero"/><g clip-path="url(#c5316f92a2)"><path fill="#6fcebf" d="M 21.480469 26.972656 C 21.746094 23.429688 21.796875 20.269531 22.738281 18.941406 C 23.648438 17.664062 25.632812 17.210938 25.632812 17.210938 C 25.632812 17.210938 26.835938 18.53125 26.671875 20.683594 C 26.609375 21.457031 26.179688 24.328125 25.71875 26.972656 C 25.71875 26.972656 23.363281 27.609375 21.480469 26.972656 " fill-opacity="1" fill-rule="nonzero"/></g><g clip-path="url(#0b51a2c5a6)"><path fill="#f78f89" d="M 23.445312 29.101562 C 23.445312 29.101562 31.253906 29.410156 32.183594 29.648438 L 32.621094 30.859375 C 32.621094 30.859375 23.929688 33.0625 22.628906 32.390625 C 21.328125 31.722656 21.996094 29.101562 21.996094 29.101562 L 23.445312 29.101562 " fill-opacity="1" fill-rule="nonzero"/></g><path fill="#f78f89" d="M 43.414062 17.695312 C 43.414062 17.695312 43.992188 16.425781 44.996094 16.425781 C 46.476562 16.425781 47.023438 16.972656 47.089844 17.613281 C 47.160156 18.253906 47.203125 19.566406 46.800781 19.597656 C 46.578125 19.613281 46.308594 17.886719 46.308594 17.886719 C 46.308594 17.886719 46.441406 19.515625 45.898438 19.566406 C 45.597656 19.597656 45.457031 17.832031 45.457031 17.832031 C 45.457031 17.832031 45.460938 19.492188 45.117188 19.59375 C 44.84375 19.675781 44.636719 17.71875 44.636719 17.71875 C 44.636719 17.71875 44.566406 19.566406 44.160156 19.566406 C 43.804688 19.566406 43.890625 17.71875 43.890625 17.71875 L 43.414062 17.695312 " fill-opacity="1" fill-rule="nonzero"/><path fill="#7b402f" d="M 29.714844 9.105469 C 29.714844 9.105469 29.972656 9.933594 30.175781 9.886719 C 30.378906 9.839844 30.398438 9.710938 30.433594 9.402344 C 30.472656 9.089844 30.398438 7.695312 31.328125 6.621094 C 31.328125 6.621094 32.296875 7.179688 33.375 7.097656 C 34.453125 7.019531 35.539062 7.054688 35.832031 7.296875 C 35.832031 7.296875 36.160156 8.851562 36.160156 9.289062 C 36.160156 9.289062 37.089844 7.339844 36.757812 6.621094 C 36.421875 5.902344 36.261719 5.542969 35.039062 4.828125 C 33.820312 4.109375 30.125 3.59375 29.703125 5.625 C 29.703125 5.625 28.800781 5.664062 28.773438 6.949219 C 28.75 7.996094 28.996094 9.039062 28.996094 9.039062 C 28.996094 9.039062 29.320312 8.78125 29.714844 9.105469 " fill-opacity="1" fill-rule="nonzero"/><path fill="#a3e1f1" d="M 50.9375 38.109375 L 61.867188 38.109375 L 61.867188 19.65625 L 50.9375 19.65625 L 50.9375 38.109375 " fill-opacity="1" fill-rule="nonzero"/><path fill="#67b5cb" d="M 56.453125 22.207031 C 55.671875 19.804688 51.640625 20.648438 52.746094 23.890625 C 53.703125 26.699219 56.453125 27.847656 56.453125 27.847656 C 56.453125 27.847656 59.203125 26.699219 60.160156 23.890625 C 61.265625 20.648438 57.234375 19.804688 56.453125 22.207031 " fill-opacity="1" fill-rule="nonzero"/><path fill="#eff9f7" d="M 60.074219 24.117188 L 58.402344 24.117188 L 58.105469 22.882812 C 58.089844 22.8125 58.03125 22.761719 57.957031 22.757812 C 57.886719 22.753906 57.820312 22.796875 57.796875 22.859375 L 57.125 24.636719 L 56.59375 22.730469 C 56.574219 22.660156 56.507812 22.609375 56.4375 22.609375 C 56.363281 22.613281 56.300781 22.65625 56.28125 22.726562 L 55.542969 25.175781 L 54.519531 22.851562 C 54.492188 22.796875 54.4375 22.757812 54.375 22.757812 C 54.308594 22.753906 54.25 22.792969 54.222656 22.847656 L 53.585938 24.175781 L 52.851562 24.175781 C 52.894531 24.285156 52.941406 24.394531 52.992188 24.5 L 53.6875 24.5 C 53.75 24.5 53.808594 24.464844 53.835938 24.40625 L 54.363281 23.308594 L 55.425781 25.707031 C 55.453125 25.765625 55.507812 25.804688 55.574219 25.804688 L 55.582031 25.804688 C 55.652344 25.800781 55.710938 25.753906 55.730469 25.6875 L 56.429688 23.355469 L 56.945312 25.199219 C 56.964844 25.265625 57.023438 25.316406 57.09375 25.316406 C 57.164062 25.320312 57.230469 25.277344 57.253906 25.214844 L 57.914062 23.472656 L 58.113281 24.316406 C 58.132812 24.390625 58.199219 24.441406 58.273438 24.441406 L 59.9375 24.441406 C 59.988281 24.335938 60.03125 24.230469 60.074219 24.117188 " fill-opacity="1" fill-rule="nonzero"/><path fill="#67b5cb" d="M 60.976562 30.808594 L 51.980469 30.808594 L 51.980469 29.050781 L 60.976562 29.050781 L 60.976562 30.808594 " fill-opacity="1" fill-rule="nonzero"/><path fill="#67b5cb" d="M 59.710938 33.632812 L 51.980469 33.632812 L 51.980469 31.992188 L 59.710938 31.992188 L 59.710938 33.632812 " fill-opacity="1" fill-rule="nonzero"/><path fill="#67b5cb" d="M 60.976562 36.003906 L 51.980469 36.003906 L 51.980469 34.761719 L 60.976562 34.761719 L 60.976562 36.003906 " fill-opacity="1" fill-rule="nonzero"/><path fill="#a3e1f1" d="M 36.636719 38.027344 L 49.335938 38.027344 L 49.335938 19.65625 L 36.636719 19.65625 L 36.636719 38.027344 " fill-opacity="1" fill-rule="nonzero"/><path fill="#67b5cb" d="M 47.296875 28.902344 C 47.296875 28.902344 47.5 29.167969 47.410156 29.398438 C 47.316406 29.628906 47.253906 29.589844 47.222656 29.886719 C 47.1875 30.183594 47.421875 30.691406 47.15625 31.101562 C 46.847656 31.570312 45.03125 30.78125 44.734375 31.34375 C 44.433594 31.90625 44.59375 32.371094 44.59375 32.371094 L 40.550781 32.371094 C 40.550781 32.371094 40.652344 31.410156 40.351562 30.25 C 40.054688 29.09375 37.53125 27.023438 38.59375 23.632812 C 39.589844 20.457031 43.539062 19.53125 46.25 21.679688 C 46.25 21.679688 47.695312 22.699219 47.320312 24.78125 C 47.199219 25.457031 47.359375 25.625 47.488281 25.949219 C 47.65625 26.382812 47.972656 26.824219 48.292969 27.4375 C 48.410156 27.667969 48.15625 27.773438 47.570312 27.988281 C 47.296875 28.09375 47.632812 28.617188 47.632812 28.617188 C 47.632812 28.617188 47.582031 28.816406 47.296875 28.902344 " fill-opacity="1" fill-rule="nonzero"/><path fill="#67b5cb" d="M 45.625 36.796875 L 47.492188 36.796875 L 47.492188 32.660156 L 45.625 32.660156 L 45.625 36.796875 " fill-opacity="1" fill-rule="nonzero"/><path fill="#67b5cb" d="M 43.433594 36.796875 L 44.878906 36.796875 L 44.878906 33.632812 L 43.433594 33.632812 L 43.433594 36.796875 " fill-opacity="1" fill-rule="nonzero"/><path fill="#67b5cb" d="M 41.332031 36.796875 L 42.640625 36.796875 L 42.640625 34.425781 L 41.332031 34.425781 L 41.332031 36.796875 " fill-opacity="1" fill-rule="nonzero"/><path fill="#67b5cb" d="M 39.699219 36.796875 L 40.773438 36.796875 L 40.773438 35.214844 L 39.699219 35.214844 L 39.699219 36.796875 " fill-opacity="1" fill-rule="nonzero"/><path fill="#eff9f7" d="M 45.023438 21.414062 C 45.023438 21.414062 43.25 20.65625 41.738281 21.222656 C 40.242188 21.78125 38.585938 23.1875 38.785156 25.03125 C 38.984375 26.875 40.574219 26.742188 41.40625 26.59375 C 42.234375 26.445312 43.761719 24.941406 44.757812 25.03125 C 45.753906 25.121094 46.515625 25.121094 46.683594 24.328125 C 46.847656 23.535156 46.722656 22.292969 45.023438 21.414062 " fill-opacity="1" fill-rule="nonzero"/></svg>