<svg xmlns="http://www.w3.org/2000/svg" xmlns:xlink="http://www.w3.org/1999/xlink" width="114" zoomAndPan="magnify" viewBox="0 0 85.5 71.249999" height="95" preserveAspectRatio="xMidYMid meet" version="1.0"><defs><clipPath id="d83bdb6912"><path d="M 14.449219 7.050781 L 70.855469 7.050781 L 70.855469 63.457031 L 14.449219 63.457031 Z M 14.449219 7.050781 " clip-rule="nonzero"/></clipPath></defs><g clip-path="url(#d83bdb6912)"><path fill="#009444" d="M 70.011719 34.347656 L 62.699219 29.691406 L 66.703125 22 C 66.761719 21.886719 66.800781 21.761719 66.804688 21.625 C 66.824219 21.128906 66.441406 20.710938 65.945312 20.691406 L 57.285156 20.316406 L 56.914062 11.71875 C 56.917969 11.570312 56.886719 11.417969 56.8125 11.277344 C 56.582031 10.835938 56.039062 10.664062 55.597656 10.894531 L 47.910156 14.902344 L 43.265625 7.601562 C 43.195312 7.492188 43.101562 7.390625 42.980469 7.316406 C 42.566406 7.050781 42.011719 7.171875 41.742188 7.589844 L 37.089844 14.902344 L 29.398438 10.898438 C 29.285156 10.839844 29.160156 10.800781 29.023438 10.796875 C 28.527344 10.777344 28.109375 11.160156 28.085938 11.65625 L 27.714844 20.316406 L 19.113281 20.6875 C 18.964844 20.683594 18.816406 20.714844 18.675781 20.789062 C 18.234375 21.019531 18.0625 21.5625 18.289062 22.003906 L 22.300781 29.695312 L 15 34.339844 C 14.886719 34.40625 14.789062 34.503906 14.714844 34.621094 C 14.445312 35.039062 14.570312 35.59375 14.988281 35.859375 L 22.300781 40.515625 L 18.292969 48.203125 C 18.234375 48.316406 18.199219 48.445312 18.195312 48.582031 C 18.171875 49.078125 18.558594 49.496094 19.054688 49.515625 L 27.714844 49.890625 L 28.085938 58.488281 C 28.082031 58.636719 28.113281 58.785156 28.1875 58.925781 C 28.414062 59.367188 28.957031 59.539062 29.398438 59.3125 L 37.089844 55.300781 L 41.738281 62.605469 C 41.804688 62.714844 41.898438 62.816406 42.019531 62.890625 C 42.4375 63.15625 42.992188 63.035156 43.257812 62.617188 L 47.910156 55.300781 L 55.601562 59.308594 C 55.714844 59.367188 55.84375 59.402344 55.976562 59.410156 C 56.472656 59.429688 56.890625 59.046875 56.914062 58.550781 L 57.289062 49.890625 L 65.886719 49.515625 C 66.035156 49.523438 66.183594 49.488281 66.324219 49.417969 C 66.765625 49.1875 66.9375 48.644531 66.710938 48.203125 L 62.699219 40.511719 L 70.003906 35.867188 C 70.113281 35.796875 70.214844 35.703125 70.289062 35.585938 C 70.550781 35.167969 70.429688 34.613281 70.011719 34.347656 Z M 61.039062 39.441406 C 60.644531 39.695312 60.511719 40.207031 60.722656 40.613281 L 64.457031 47.78125 L 56.382812 48.128906 C 55.914062 48.148438 55.542969 48.527344 55.523438 48.988281 L 55.175781 57.058594 L 48.011719 53.324219 C 47.570312 53.097656 47.027344 53.265625 46.796875 53.707031 L 42.5 60.464844 L 38.160156 53.640625 C 37.910156 53.246094 37.398438 53.117188 36.992188 53.328125 L 36.988281 53.324219 L 29.820312 57.058594 L 29.472656 48.988281 C 29.453125 48.519531 29.074219 48.148438 28.613281 48.128906 L 20.542969 47.78125 L 24.277344 40.613281 C 24.507812 40.175781 24.335938 39.632812 23.898438 39.402344 L 17.140625 35.101562 L 23.960938 30.761719 C 24.359375 30.511719 24.488281 30 24.277344 29.59375 L 24.28125 29.59375 L 20.542969 22.425781 L 28.613281 22.078125 C 29.085938 22.058594 29.453125 21.679688 29.472656 21.21875 L 29.820312 13.144531 L 36.988281 16.882812 C 37.429688 17.109375 37.972656 16.941406 38.199219 16.5 L 42.5 9.746094 L 46.839844 16.566406 C 47.089844 16.960938 47.601562 17.09375 48.011719 16.878906 L 48.011719 16.882812 L 55.179688 13.148438 L 55.527344 21.21875 C 55.546875 21.6875 55.925781 22.058594 56.386719 22.078125 L 64.457031 22.425781 L 60.722656 29.59375 C 60.492188 30.03125 60.664062 30.574219 61.105469 30.804688 L 67.859375 35.101562 Z M 51.746094 27.132812 L 34.527344 44.347656 C 34.175781 44.699219 33.605469 44.699219 33.253906 44.347656 C 32.902344 43.996094 32.902344 43.425781 33.253906 43.074219 L 50.472656 25.859375 C 50.824219 25.507812 51.394531 25.507812 51.746094 25.859375 C 52.097656 26.207031 52.097656 26.78125 51.746094 27.132812 Z M 39.199219 30.703125 C 39.996094 29.910156 40.488281 28.808594 40.488281 27.597656 C 40.488281 26.382812 39.996094 25.28125 39.199219 24.488281 C 38.40625 23.691406 37.304688 23.199219 36.089844 23.199219 C 34.878906 23.199219 33.777344 23.695312 32.980469 24.488281 C 32.1875 25.285156 31.691406 26.382812 31.691406 27.597656 C 31.691406 28.808594 32.1875 29.910156 32.980469 30.703125 C 33.777344 31.5 34.875 31.992188 36.089844 31.992188 C 37.304688 31.992188 38.40625 31.5 39.199219 30.703125 Z M 33.496094 27.597656 C 33.496094 26.878906 33.785156 26.230469 34.253906 25.761719 C 34.722656 25.292969 35.375 25.003906 36.089844 25.003906 C 36.808594 25.003906 37.457031 25.292969 37.925781 25.761719 C 38.394531 26.230469 38.6875 26.878906 38.6875 27.597656 C 38.6875 28.3125 38.394531 28.960938 37.925781 29.429688 C 37.457031 29.902344 36.808594 30.191406 36.089844 30.191406 C 35.375 30.191406 34.722656 29.902344 34.253906 29.429688 C 33.785156 28.960938 33.496094 28.3125 33.496094 27.597656 Z M 48.910156 38.210938 C 47.695312 38.210938 46.597656 38.707031 45.800781 39.5 C 45.003906 40.296875 44.511719 41.394531 44.511719 42.609375 C 44.511719 43.820312 45.003906 44.921875 45.800781 45.714844 C 46.597656 46.511719 47.695312 47.003906 48.910156 47.003906 C 50.121094 47.003906 51.222656 46.511719 52.019531 45.714844 C 52.816406 44.921875 53.308594 43.820312 53.308594 42.609375 C 53.308594 41.394531 52.816406 40.292969 52.019531 39.5 C 51.222656 38.707031 50.121094 38.210938 48.910156 38.210938 Z M 50.746094 44.445312 C 50.277344 44.914062 49.628906 45.207031 48.910156 45.207031 C 48.191406 45.207031 47.542969 44.914062 47.074219 44.445312 C 46.605469 43.976562 46.3125 43.328125 46.3125 42.609375 C 46.3125 41.894531 46.605469 41.246094 47.074219 40.777344 C 47.542969 40.308594 48.191406 40.015625 48.910156 40.015625 C 49.625 40.015625 50.277344 40.308594 50.746094 40.777344 C 51.214844 41.246094 51.503906 41.894531 51.503906 42.609375 C 51.503906 43.324219 51.214844 43.976562 50.746094 44.445312 Z M 50.746094 44.445312 " fill-opacity="1" fill-rule="nonzero"/></g></svg>