<svg xmlns="http://www.w3.org/2000/svg" xmlns:xlink="http://www.w3.org/1999/xlink" width="114" zoomAndPan="magnify" viewBox="0 0 85.5 71.249999" height="95" preserveAspectRatio="xMidYMid meet" version="1.0"><defs><clipPath id="14de5dd12b"><path d="M 17.085938 44 L 33 44 L 33 62 L 17.085938 62 Z M 17.085938 44 " clip-rule="nonzero"/></clipPath><clipPath id="2bd47267a5"><path d="M 52 44 L 67.554688 44 L 67.554688 62 L 52 62 Z M 52 44 " clip-rule="nonzero"/></clipPath><clipPath id="5c0d747715"><path d="M 26 36 L 59 36 L 59 63.457031 L 26 63.457031 Z M 26 36 " clip-rule="nonzero"/></clipPath><clipPath id="12bb7832c3"><path d="M 40 7.050781 L 45 7.050781 L 45 11 L 40 11 Z M 40 7.050781 " clip-rule="nonzero"/></clipPath></defs><g clip-path="url(#14de5dd12b)"><path fill="#009444" d="M 19.28125 45.210938 L 17.253906 49.910156 C 17.113281 50.230469 17.167969 50.605469 17.386719 50.878906 L 25.839844 61.214844 C 26.019531 61.429688 26.28125 61.5625 26.5625 61.5625 C 26.847656 61.5625 27.109375 61.4375 27.289062 61.214844 L 32.832031 54.4375 L 31.65625 52.90625 L 27.164062 58.394531 L 29.121094 51.226562 L 30.371094 51.226562 L 28.933594 49.347656 L 19.546875 49.347656 L 20.765625 46.527344 L 21.050781 46.527344 L 23.753906 49.347656 L 26.574219 46.527344 L 25.363281 44.648438 L 20.148438 44.648438 C 19.773438 44.648438 19.433594 44.875 19.28125 45.210938 Z M 24.007812 51.226562 L 25.964844 58.394531 L 20.101562 51.226562 Z M 24.007812 51.226562 " fill-opacity="1" fill-rule="nonzero"/></g><g clip-path="url(#2bd47267a5)"><path fill="#009444" d="M 67.835938 49.910156 L 65.808594 45.210938 C 65.65625 44.867188 65.320312 44.648438 64.945312 44.648438 L 59.730469 44.648438 L 58.515625 46.527344 L 61.335938 49.347656 L 64.042969 46.527344 L 64.324219 46.527344 L 65.546875 49.347656 L 56.140625 49.347656 L 54.703125 51.226562 L 55.953125 51.226562 L 57.90625 58.394531 L 53.414062 52.90625 L 52.242188 54.4375 L 57.785156 61.214844 C 57.964844 61.429688 58.226562 61.5625 58.507812 61.5625 C 58.789062 61.5625 59.054688 61.4375 59.230469 61.214844 L 67.6875 50.878906 C 67.914062 50.605469 67.960938 50.230469 67.820312 49.910156 Z M 59.128906 58.394531 L 61.082031 51.226562 L 64.992188 51.226562 Z M 59.128906 58.394531 " fill-opacity="1" fill-rule="nonzero"/></g><g clip-path="url(#5c0d747715)"><path fill="#009444" d="M 58.367188 42.320312 L 54.757812 36.636719 C 54.589844 36.363281 54.289062 36.203125 53.96875 36.203125 L 31.121094 36.203125 C 30.800781 36.203125 30.5 36.371094 30.332031 36.636719 L 26.722656 42.320312 C 26.515625 42.648438 26.535156 43.082031 26.769531 43.390625 L 41.804688 63.074219 C 41.980469 63.308594 42.253906 63.441406 42.546875 63.441406 C 42.835938 63.441406 43.117188 63.296875 43.289062 63.074219 L 58.320312 43.390625 C 58.554688 43.082031 58.574219 42.648438 58.367188 42.320312 Z M 29.375 43.710938 L 37.078125 43.710938 L 41.820312 60 L 29.382812 43.710938 Z M 43.269531 60 L 48.011719 43.710938 L 55.71875 43.710938 L 43.277344 60 Z M 48.265625 41.832031 L 29.25 41.832031 L 31.636719 38.074219 L 32.257812 38.074219 L 36.816406 41.832031 L 42.546875 38.074219 L 48.277344 41.832031 L 52.832031 38.074219 L 53.453125 38.074219 L 55.839844 41.832031 Z M 48.265625 41.832031 " fill-opacity="1" fill-rule="nonzero"/></g><path fill="#009444" d="M 37.640625 26.46875 L 42.546875 34.3125 L 47.449219 26.46875 L 42.546875 11.765625 Z M 37.640625 26.46875 " fill-opacity="1" fill-rule="nonzero"/><path fill="#009444" d="M 31.382812 28.582031 L 35.03125 34.3125 L 37.640625 26.46875 L 34.089844 20.785156 Z M 31.382812 28.582031 " fill-opacity="1" fill-rule="nonzero"/><path fill="#009444" d="M 47.449219 26.46875 L 50.0625 34.3125 L 53.707031 28.582031 L 51 20.785156 Z M 47.449219 26.46875 " fill-opacity="1" fill-rule="nonzero"/><path fill="#009444" d="M 29.390625 34.3125 L 31.382812 28.582031 L 24.695312 18.078125 Z M 29.390625 34.3125 " fill-opacity="1" fill-rule="nonzero"/><path fill="#009444" d="M 55.699219 34.3125 L 60.398438 18.078125 L 53.707031 28.582031 Z M 55.699219 34.3125 " fill-opacity="1" fill-rule="nonzero"/><g clip-path="url(#12bb7832c3)"><path fill="#009444" d="M 44.425781 8.945312 C 44.425781 9.195312 44.378906 9.4375 44.28125 9.667969 C 44.1875 9.898438 44.050781 10.101562 43.875 10.277344 C 43.699219 10.453125 43.496094 10.589844 43.265625 10.683594 C 43.035156 10.777344 42.792969 10.828125 42.546875 10.828125 C 42.296875 10.828125 42.058594 10.777344 41.828125 10.683594 C 41.597656 10.589844 41.394531 10.453125 41.21875 10.277344 C 41.039062 10.101562 40.90625 9.898438 40.808594 9.667969 C 40.714844 9.4375 40.667969 9.195312 40.667969 8.945312 C 40.667969 8.699219 40.714844 8.457031 40.808594 8.226562 C 40.90625 7.996094 41.039062 7.792969 41.21875 7.617188 C 41.394531 7.441406 41.597656 7.304688 41.828125 7.210938 C 42.058594 7.117188 42.296875 7.066406 42.546875 7.066406 C 42.792969 7.066406 43.035156 7.117188 43.265625 7.210938 C 43.496094 7.304688 43.699219 7.441406 43.875 7.617188 C 44.050781 7.792969 44.1875 7.996094 44.28125 8.226562 C 44.378906 8.457031 44.425781 8.699219 44.425781 8.945312 Z M 44.425781 8.945312 " fill-opacity="1" fill-rule="nonzero"/></g><path fill="#009444" d="M 35.96875 17.402344 C 35.96875 17.652344 35.921875 17.890625 35.824219 18.121094 C 35.730469 18.351562 35.59375 18.554688 35.417969 18.730469 C 35.242188 18.90625 35.039062 19.042969 34.808594 19.140625 C 34.578125 19.234375 34.339844 19.28125 34.089844 19.28125 C 33.839844 19.28125 33.601562 19.234375 33.371094 19.140625 C 33.140625 19.042969 32.9375 18.90625 32.761719 18.730469 C 32.585938 18.554688 32.449219 18.351562 32.355469 18.121094 C 32.257812 17.890625 32.210938 17.652344 32.210938 17.402344 C 32.210938 17.152344 32.257812 16.914062 32.355469 16.683594 C 32.449219 16.453125 32.585938 16.25 32.761719 16.074219 C 32.9375 15.898438 33.140625 15.761719 33.371094 15.667969 C 33.601562 15.570312 33.839844 15.523438 34.089844 15.523438 C 34.339844 15.523438 34.578125 15.570312 34.808594 15.667969 C 35.039062 15.761719 35.242188 15.898438 35.417969 16.074219 C 35.59375 16.25 35.730469 16.453125 35.824219 16.683594 C 35.921875 16.914062 35.96875 17.152344 35.96875 17.402344 Z M 35.96875 17.402344 " fill-opacity="1" fill-rule="nonzero"/><path fill="#009444" d="M 25.632812 15.523438 C 25.632812 15.773438 25.585938 16.011719 25.492188 16.242188 C 25.394531 16.472656 25.261719 16.675781 25.082031 16.851562 C 24.90625 17.027344 24.703125 17.164062 24.472656 17.261719 C 24.242188 17.355469 24.003906 17.402344 23.753906 17.402344 C 23.507812 17.402344 23.265625 17.355469 23.035156 17.261719 C 22.804688 17.164062 22.601562 17.027344 22.425781 16.851562 C 22.25 16.675781 22.113281 16.472656 22.019531 16.242188 C 21.921875 16.011719 21.875 15.773438 21.875 15.523438 C 21.875 15.273438 21.921875 15.035156 22.019531 14.804688 C 22.113281 14.574219 22.25 14.371094 22.425781 14.195312 C 22.601562 14.019531 22.804688 13.882812 23.035156 13.789062 C 23.265625 13.691406 23.507812 13.644531 23.753906 13.644531 C 24.003906 13.644531 24.242188 13.691406 24.472656 13.789062 C 24.703125 13.882812 24.90625 14.019531 25.082031 14.195312 C 25.261719 14.371094 25.394531 14.574219 25.492188 14.804688 C 25.585938 15.035156 25.632812 15.273438 25.632812 15.523438 Z M 25.632812 15.523438 " fill-opacity="1" fill-rule="nonzero"/><path fill="#009444" d="M 52.878906 17.402344 C 52.878906 17.652344 52.832031 17.890625 52.738281 18.121094 C 52.640625 18.351562 52.507812 18.554688 52.328125 18.730469 C 52.152344 18.90625 51.949219 19.042969 51.71875 19.140625 C 51.488281 19.234375 51.25 19.28125 51 19.28125 C 50.753906 19.28125 50.511719 19.234375 50.28125 19.140625 C 50.050781 19.042969 49.847656 18.90625 49.671875 18.730469 C 49.496094 18.554688 49.359375 18.351562 49.265625 18.121094 C 49.171875 17.890625 49.121094 17.652344 49.121094 17.402344 C 49.121094 17.152344 49.171875 16.914062 49.265625 16.683594 C 49.359375 16.453125 49.496094 16.25 49.671875 16.074219 C 49.847656 15.898438 50.050781 15.761719 50.28125 15.667969 C 50.511719 15.570312 50.753906 15.523438 51 15.523438 C 51.25 15.523438 51.488281 15.570312 51.71875 15.667969 C 51.949219 15.761719 52.152344 15.898438 52.328125 16.074219 C 52.507812 16.25 52.640625 16.453125 52.738281 16.683594 C 52.832031 16.914062 52.878906 17.152344 52.878906 17.402344 Z M 52.878906 17.402344 " fill-opacity="1" fill-rule="nonzero"/><path fill="#009444" d="M 63.214844 15.523438 C 63.214844 15.773438 63.167969 16.011719 63.070312 16.242188 C 62.976562 16.472656 62.839844 16.675781 62.664062 16.851562 C 62.488281 17.027344 62.285156 17.164062 62.054688 17.261719 C 61.824219 17.355469 61.585938 17.402344 61.335938 17.402344 C 61.085938 17.402344 60.847656 17.355469 60.617188 17.261719 C 60.386719 17.164062 60.183594 17.027344 60.007812 16.851562 C 59.832031 16.675781 59.695312 16.472656 59.601562 16.242188 C 59.503906 16.011719 59.457031 15.773438 59.457031 15.523438 C 59.457031 15.273438 59.503906 15.035156 59.601562 14.804688 C 59.695312 14.574219 59.832031 14.371094 60.007812 14.195312 C 60.183594 14.019531 60.386719 13.882812 60.617188 13.789062 C 60.847656 13.691406 61.085938 13.644531 61.335938 13.644531 C 61.585938 13.644531 61.824219 13.691406 62.054688 13.789062 C 62.285156 13.882812 62.488281 14.019531 62.664062 14.195312 C 62.839844 14.371094 62.976562 14.574219 63.070312 14.804688 C 63.167969 15.035156 63.214844 15.273438 63.214844 15.523438 Z M 63.214844 15.523438 " fill-opacity="1" fill-rule="nonzero"/></svg>