<svg xmlns="http://www.w3.org/2000/svg" xmlns:xlink="http://www.w3.org/1999/xlink" width="114" zoomAndPan="magnify" viewBox="0 0 85.5 71.249999" height="95" preserveAspectRatio="xMidYMid meet" version="1.0"><defs><clipPath id="d35c2551c8"><path d="M 16.824219 9.574219 L 68.777344 9.574219 L 68.777344 61.527344 L 16.824219 61.527344 Z M 16.824219 9.574219 " clip-rule="nonzero"/></clipPath></defs><g clip-path="url(#d35c2551c8)"><path fill="#009444" d="M 68.472656 35.398438 C 68.472656 36.246094 68.433594 37.089844 68.351562 37.929688 C 68.265625 38.773438 68.144531 39.609375 67.976562 40.4375 C 67.8125 41.269531 67.609375 42.085938 67.363281 42.898438 C 67.117188 43.707031 66.832031 44.5 66.507812 45.28125 C 66.183594 46.066406 65.824219 46.828125 65.425781 47.574219 C 65.027344 48.320312 64.59375 49.042969 64.121094 49.75 C 63.652344 50.453125 63.148438 51.128906 62.613281 51.785156 C 62.074219 52.4375 61.507812 53.0625 60.910156 53.660156 C 60.3125 54.257812 59.6875 54.828125 59.03125 55.363281 C 58.378906 55.898438 57.699219 56.402344 56.996094 56.875 C 56.292969 57.34375 55.570312 57.777344 54.824219 58.175781 C 54.078125 58.574219 53.3125 58.9375 52.53125 59.261719 C 51.75 59.582031 50.953125 59.867188 50.144531 60.113281 C 49.335938 60.359375 48.515625 60.566406 47.6875 60.730469 C 46.859375 60.894531 46.023438 61.019531 45.179688 61.101562 C 44.339844 61.183594 43.496094 61.226562 42.648438 61.226562 C 41.804688 61.226562 40.960938 61.183594 40.117188 61.101562 C 39.277344 61.019531 38.441406 60.894531 37.609375 60.730469 C 36.78125 60.566406 35.960938 60.359375 35.152344 60.113281 C 34.34375 59.867188 33.546875 59.582031 32.765625 59.261719 C 31.984375 58.9375 31.21875 58.574219 30.472656 58.175781 C 29.730469 57.777344 29.003906 57.34375 28.300781 56.875 C 27.597656 56.402344 26.917969 55.898438 26.265625 55.363281 C 25.609375 54.828125 24.984375 54.257812 24.386719 53.660156 C 23.789062 53.0625 23.222656 52.4375 22.683594 51.785156 C 22.148438 51.128906 21.644531 50.453125 21.175781 49.75 C 20.707031 49.042969 20.269531 48.320312 19.871094 47.574219 C 19.472656 46.828125 19.113281 46.066406 18.789062 45.28125 C 18.464844 44.5 18.179688 43.707031 17.933594 42.898438 C 17.6875 42.085938 17.484375 41.269531 17.320312 40.4375 C 17.152344 39.609375 17.03125 38.773438 16.949219 37.929688 C 16.863281 37.089844 16.824219 36.246094 16.824219 35.398438 C 16.824219 34.554688 16.863281 33.710938 16.949219 32.867188 C 17.03125 32.027344 17.152344 31.191406 17.320312 30.363281 C 17.484375 29.53125 17.6875 28.710938 17.933594 27.902344 C 18.179688 27.09375 18.464844 26.296875 18.789062 25.515625 C 19.113281 24.734375 19.472656 23.972656 19.871094 23.226562 C 20.269531 22.480469 20.707031 21.753906 21.175781 21.050781 C 21.644531 20.347656 22.148438 19.671875 22.683594 19.015625 C 23.222656 18.363281 23.789062 17.738281 24.386719 17.136719 C 24.984375 16.539062 25.609375 15.972656 26.265625 15.4375 C 26.917969 14.898438 27.597656 14.398438 28.300781 13.925781 C 29.003906 13.457031 29.730469 13.023438 30.472656 12.625 C 31.21875 12.226562 31.984375 11.863281 32.765625 11.539062 C 33.546875 11.214844 34.34375 10.933594 35.152344 10.6875 C 35.960938 10.441406 36.78125 10.234375 37.609375 10.070312 C 38.441406 9.90625 39.277344 9.78125 40.117188 9.699219 C 40.960938 9.617188 41.804688 9.574219 42.648438 9.574219 C 43.496094 9.574219 44.339844 9.617188 45.179688 9.699219 C 46.023438 9.78125 46.859375 9.90625 47.6875 10.070312 C 48.515625 10.234375 49.335938 10.441406 50.144531 10.6875 C 50.953125 10.933594 51.75 11.214844 52.53125 11.539062 C 53.3125 11.863281 54.078125 12.226562 54.824219 12.625 C 55.570312 13.023438 56.292969 13.457031 56.996094 13.925781 C 57.699219 14.398438 58.378906 14.898438 59.03125 15.4375 C 59.6875 15.972656 60.3125 16.539062 60.910156 17.136719 C 61.507812 17.738281 62.074219 18.363281 62.613281 19.015625 C 63.148438 19.671875 63.652344 20.347656 64.121094 21.050781 C 64.59375 21.753906 65.027344 22.480469 65.425781 23.226562 C 65.824219 23.972656 66.183594 24.734375 66.507812 25.515625 C 66.832031 26.296875 67.117188 27.09375 67.363281 27.902344 C 67.609375 28.710938 67.8125 29.53125 67.976562 30.363281 C 68.144531 31.191406 68.265625 32.027344 68.351562 32.867188 C 68.433594 33.710938 68.472656 34.554688 68.472656 35.398438 Z M 68.472656 35.398438 " fill-opacity="1" fill-rule="nonzero"/></g><path fill="#f2f2f2" d="M 56.828125 30.519531 C 58.210938 29.136719 58.210938 26.898438 56.828125 25.515625 C 55.445312 24.132812 53.203125 24.132812 51.820312 25.515625 L 39.566406 37.773438 L 33.453125 31.65625 C 32.070312 30.273438 29.828125 30.273438 28.445312 31.65625 C 27.0625 33.039062 27.0625 35.28125 28.445312 36.664062 L 37.066406 45.285156 C 37.730469 45.949219 38.628906 46.320312 39.570312 46.320312 C 40.507812 46.320312 41.410156 45.949219 42.074219 45.285156 Z M 56.828125 30.519531 " fill-opacity="1" fill-rule="nonzero"/></svg>