<svg xmlns="http://www.w3.org/2000/svg" xmlns:xlink="http://www.w3.org/1999/xlink" width="114" zoomAndPan="magnify" viewBox="0 0 85.5 71.249999" height="95" preserveAspectRatio="xMidYMid meet" version="1.0"><defs><clipPath id="a0d4124c8b"><path d="M 8.949219 7.050781 L 75.746094 7.050781 L 75.746094 56.777344 L 8.949219 56.777344 Z M 8.949219 7.050781 " clip-rule="nonzero"/></clipPath></defs><g clip-path="url(#a0d4124c8b)"><path fill="#009444" d="M 75.160156 46.351562 C 74.746094 45.585938 74.207031 44.917969 73.546875 44.347656 C 72.882812 43.78125 72.140625 43.351562 71.320312 43.058594 C 70.691406 43.246094 70.054688 43.398438 69.40625 43.511719 C 67.976562 43.789062 66.625 44.046875 65.339844 45.316406 C 64.054688 46.585938 63.609375 47.761719 63.140625 49.003906 C 62.851562 49.769531 62.550781 50.5625 62.046875 51.351562 C 62.121094 51.742188 62.234375 52.125 62.390625 52.492188 C 62.644531 53.097656 62.976562 53.660156 63.386719 54.175781 C 63.792969 54.691406 64.265625 55.140625 64.800781 55.523438 C 65.335938 55.90625 65.914062 56.210938 66.535156 56.429688 C 67.152344 56.652344 67.792969 56.785156 68.449219 56.828125 C 69.105469 56.875 69.753906 56.828125 70.398438 56.6875 C 71.042969 56.550781 71.65625 56.328125 72.234375 56.019531 C 72.816406 55.707031 73.34375 55.324219 73.820312 54.871094 C 74.292969 54.414062 74.695312 53.898438 75.027344 53.332031 C 75.109375 53.191406 75.183594 53.054688 75.257812 52.910156 C 75.667969 52.097656 75.910156 51.238281 75.984375 50.335938 C 76.003906 50.136719 76.015625 49.933594 76.015625 49.730469 C 76.019531 48.53125 75.734375 47.40625 75.160156 46.351562 Z M 72.691406 50.726562 C 72.605469 51.039062 72.480469 51.335938 72.316406 51.617188 C 72.152344 51.898438 71.957031 52.152344 71.730469 52.386719 C 71.503906 52.617188 71.25 52.816406 70.972656 52.984375 C 70.695312 53.152344 70.402344 53.285156 70.089844 53.378906 C 69.78125 53.472656 69.460938 53.527344 69.136719 53.539062 C 68.8125 53.554688 68.492188 53.527344 68.175781 53.457031 C 67.855469 53.390625 67.550781 53.285156 67.261719 53.140625 C 66.972656 52.996094 66.703125 52.820312 66.457031 52.609375 C 66.210938 52.394531 65.992188 52.15625 65.808594 51.890625 C 65.621094 51.625 65.472656 51.339844 65.359375 51.035156 C 65.246094 50.730469 65.171875 50.417969 65.136719 50.09375 C 65.101562 49.773438 65.105469 49.449219 65.152344 49.128906 C 65.199219 48.808594 65.285156 48.496094 65.410156 48.199219 C 65.535156 47.898438 65.695312 47.617188 65.890625 47.359375 C 66.085938 47.097656 66.308594 46.867188 66.5625 46.664062 C 66.816406 46.460938 67.089844 46.292969 67.386719 46.160156 C 67.683594 46.027344 67.992188 45.933594 68.3125 45.878906 C 68.632812 45.820312 68.953125 45.804688 69.277344 45.832031 C 69.601562 45.855469 69.914062 45.921875 70.222656 46.027344 C 70.53125 46.132812 70.820312 46.273438 71.089844 46.449219 C 71.363281 46.628906 71.609375 46.835938 71.828125 47.078125 C 72.046875 47.316406 72.230469 47.582031 72.382812 47.867188 C 72.535156 48.152344 72.652344 48.453125 72.726562 48.769531 C 72.804688 49.085938 72.839844 49.40625 72.835938 49.730469 C 72.832031 50.070312 72.785156 50.402344 72.691406 50.726562 Z M 65.792969 44.238281 C 66.191406 43.960938 66.613281 43.738281 67.0625 43.5625 C 67.203125 43.507812 67.347656 43.457031 67.492188 43.410156 C 68.0625 43.238281 68.644531 43.101562 69.230469 42.996094 C 69.378906 42.96875 69.527344 42.941406 69.675781 42.910156 C 69.882812 42.871094 70.089844 42.828125 70.300781 42.777344 C 70.386719 42.757812 70.476562 42.738281 70.566406 42.71875 C 71.03125 42.605469 71.480469 42.457031 71.921875 42.269531 C 72.207031 42.148438 72.484375 42.007812 72.753906 41.84375 C 72.867188 41.777344 72.96875 41.707031 73.0625 41.644531 C 73.300781 41.484375 73.515625 41.292969 73.703125 41.074219 C 73.117188 40.636719 72.480469 40.28125 71.796875 40.015625 C 71.738281 39.992188 71.683594 39.96875 71.625 39.945312 C 71.320312 39.828125 71.011719 39.726562 70.695312 39.644531 C 70.632812 39.628906 70.570312 39.613281 70.511719 39.601562 C 70.179688 39.515625 69.84375 39.453125 69.503906 39.40625 C 69.152344 39.367188 68.800781 39.34375 68.449219 39.339844 C 68.382812 39.339844 68.316406 39.335938 68.25 39.335938 C 67.972656 39.339844 67.695312 39.351562 67.414062 39.378906 C 66.28125 39.492188 65.210938 39.804688 64.195312 40.316406 L 64.777344 39.46875 L 65.0625 39.054688 C 65.339844 38.652344 65.507812 38.210938 65.566406 37.726562 C 65.625 37.242188 65.566406 36.773438 65.390625 36.320312 L 61.589844 26.351562 L 63.933594 26.722656 C 64.054688 26.742188 64.171875 26.734375 64.289062 26.703125 C 64.40625 26.667969 64.511719 26.613281 64.605469 26.535156 C 64.699219 26.453125 64.769531 26.359375 64.820312 26.25 C 64.871094 26.136719 64.898438 26.023438 64.898438 25.898438 L 64.898438 21.523438 C 64.898438 21.402344 64.871094 21.285156 64.820312 21.175781 C 64.769531 21.066406 64.699219 20.96875 64.605469 20.890625 C 64.511719 20.8125 64.40625 20.753906 64.289062 20.722656 C 64.171875 20.691406 64.054688 20.683594 63.933594 20.703125 L 58.5625 21.554688 C 58.324219 21.59375 58.128906 21.703125 57.972656 21.886719 C 57.816406 22.070312 57.738281 22.28125 57.738281 22.519531 L 57.738281 23.328125 C 57.65625 23.3125 57.574219 23.300781 57.488281 23.296875 L 53.207031 23.242188 C 52.902344 23.230469 52.65625 23.105469 52.464844 22.871094 L 48.585938 18.09375 C 46.441406 15.464844 42.78125 16.285156 42.09375 19.605469 L 40.078125 27.183594 C 40.011719 27.492188 39.976562 27.804688 39.96875 28.121094 C 39.964844 28.433594 39.984375 28.746094 40.039062 29.058594 C 40.089844 29.371094 40.167969 29.671875 40.277344 29.96875 C 40.386719 30.265625 40.519531 30.550781 40.683594 30.820312 C 40.84375 31.09375 41.027344 31.347656 41.234375 31.582031 C 41.445312 31.820312 41.671875 32.035156 41.921875 32.230469 C 42.167969 32.425781 42.433594 32.59375 42.710938 32.742188 C 42.992188 32.886719 43.285156 33.003906 43.585938 33.09375 L 31.136719 33.09375 C 31.011719 33.09375 30.902344 33.140625 30.8125 33.230469 C 30.722656 33.320312 30.675781 33.429688 30.675781 33.554688 L 30.675781 35.289062 C 30.675781 35.414062 30.722656 35.523438 30.8125 35.613281 C 30.902344 35.703125 31.011719 35.75 31.136719 35.75 L 48.394531 35.75 C 48.519531 35.75 48.628906 35.703125 48.71875 35.613281 C 48.808594 35.523438 48.855469 35.414062 48.855469 35.289062 L 48.855469 33.917969 L 51.207031 34.253906 L 49.34375 42.539062 C 49.300781 42.785156 49.304688 43.035156 49.359375 43.28125 C 49.414062 43.527344 49.511719 43.753906 49.652344 43.960938 C 49.796875 44.167969 49.972656 44.34375 50.183594 44.480469 C 50.394531 44.617188 50.625 44.710938 50.871094 44.757812 C 51.121094 44.808594 51.367188 44.804688 51.613281 44.757812 C 51.863281 44.707031 52.089844 44.613281 52.300781 44.472656 C 52.511719 44.332031 52.6875 44.160156 52.828125 43.949219 C 52.96875 43.742188 53.066406 43.515625 53.117188 43.265625 L 55.417969 34.128906 C 55.511719 33.683594 55.519531 33.238281 55.433594 32.792969 C 55.351562 32.34375 55.183594 31.933594 54.933594 31.550781 C 54.683594 31.171875 54.371094 30.855469 53.996094 30.601562 C 53.621094 30.347656 53.207031 30.175781 52.761719 30.085938 C 50.828125 29.695312 48.417969 29.226562 47.167969 28.984375 C 46.933594 28.9375 46.753906 28.816406 46.625 28.617188 C 46.496094 28.417969 46.457031 28.203125 46.511719 27.972656 L 47.679688 22.777344 L 49.867188 25.371094 C 50.238281 25.828125 50.695312 26.179688 51.230469 26.421875 C 51.765625 26.664062 52.328125 26.777344 52.914062 26.753906 L 57.488281 26.503906 C 57.726562 26.496094 57.949219 26.4375 58.160156 26.328125 L 59.796875 35.453125 C 60.035156 36.777344 59.863281 38.046875 59.277344 39.257812 L 56.988281 44.003906 C 56.730469 44.535156 56.351562 44.960938 55.847656 45.277344 C 55.347656 45.589844 54.800781 45.746094 54.207031 45.746094 L 49.863281 45.746094 C 49.644531 45.746094 49.429688 45.722656 49.214844 45.675781 C 49 45.628906 48.792969 45.554688 48.59375 45.460938 C 48.394531 45.367188 48.210938 45.253906 48.035156 45.121094 C 47.863281 44.984375 47.707031 44.832031 47.566406 44.660156 C 47.425781 44.492188 47.308594 44.308594 47.210938 44.113281 C 47.109375 43.917969 47.035156 43.710938 46.980469 43.5 C 46.925781 43.285156 46.898438 43.070312 46.890625 42.851562 C 46.886719 42.628906 46.90625 42.414062 46.949219 42.195312 L 48.089844 36.417969 L 31.648438 36.417969 C 31.417969 36.417969 31.203125 36.480469 31.007812 36.601562 C 30.851562 36.695312 30.644531 36.832031 30.398438 37 C 30.261719 37.09375 30.109375 37.144531 29.941406 37.144531 L 22.914062 37.144531 C 22.679688 37.144531 22.480469 37.226562 22.3125 37.390625 C 22.148438 37.558594 22.066406 37.757812 22.066406 37.992188 C 22.066406 38.226562 22.148438 38.425781 22.3125 38.59375 C 22.480469 38.757812 22.679688 38.839844 22.914062 38.839844 L 30.941406 38.839844 C 31.175781 38.839844 31.375 38.921875 31.542969 39.089844 C 31.707031 39.253906 31.789062 39.453125 31.789062 39.6875 C 31.789062 39.921875 31.707031 40.125 31.542969 40.289062 C 31.375 40.453125 31.175781 40.539062 30.941406 40.539062 L 10.703125 40.539062 C 10.472656 40.539062 10.269531 40.621094 10.105469 40.785156 C 9.941406 40.953125 9.855469 41.152344 9.855469 41.386719 C 9.855469 41.621094 9.941406 41.820312 10.105469 41.984375 C 10.269531 42.152344 10.472656 42.234375 10.703125 42.234375 L 26.910156 42.234375 C 27.148438 42.230469 27.347656 42.3125 27.515625 42.480469 C 27.683594 42.644531 27.769531 42.847656 27.769531 43.082031 C 27.769531 43.320312 27.683594 43.519531 27.515625 43.6875 C 27.347656 43.851562 27.148438 43.933594 26.910156 43.929688 L 16.519531 43.929688 C 16.285156 43.929688 16.085938 44.015625 15.917969 44.179688 C 15.753906 44.34375 15.671875 44.546875 15.671875 44.78125 C 15.671875 45.015625 15.753906 45.214844 15.917969 45.378906 C 16.085938 45.546875 16.285156 45.628906 16.519531 45.628906 L 23.535156 45.628906 C 23.023438 47.097656 22.765625 48.609375 22.769531 50.167969 L 25.527344 50.167969 C 25.527344 50.183594 25.523438 50.199219 25.523438 50.214844 C 25.523438 50.40625 25.539062 50.59375 25.554688 50.777344 C 25.6875 52.382812 26.320312 53.75 27.460938 54.886719 C 27.816406 55.246094 28.207031 55.558594 28.632812 55.828125 C 29.058594 56.097656 29.511719 56.3125 29.988281 56.480469 C 30.464844 56.644531 30.957031 56.75 31.457031 56.804688 C 31.960938 56.855469 32.460938 56.847656 32.960938 56.785156 C 33.464844 56.722656 33.949219 56.601562 34.421875 56.425781 C 34.894531 56.25 35.34375 56.023438 35.765625 55.746094 C 36.183594 55.464844 36.566406 55.144531 36.914062 54.777344 C 37.261719 54.410156 37.5625 54.007812 37.8125 53.570312 C 37.890625 53.441406 37.960938 53.308594 38.03125 53.175781 C 38.410156 52.421875 38.636719 51.621094 38.707031 50.777344 C 38.722656 50.59375 38.738281 50.40625 38.738281 50.214844 C 38.738281 50.199219 38.734375 50.183594 38.734375 50.167969 L 54.855469 50.167969 C 55.652344 50.15625 56.402344 49.96875 57.105469 49.597656 C 57.8125 49.226562 58.394531 48.71875 58.851562 48.066406 L 59.128906 47.667969 C 59.066406 48.273438 59.066406 48.878906 59.128906 49.484375 C 59.152344 49.746094 59.195312 50.007812 59.246094 50.261719 C 59.390625 51.050781 59.632812 51.804688 59.972656 52.527344 C 60.089844 52.476562 60.199219 52.417969 60.304688 52.351562 C 60.46875 52.25 60.625 52.132812 60.773438 52.007812 C 60.976562 51.835938 61.160156 51.648438 61.324219 51.441406 C 61.421875 51.320312 61.511719 51.191406 61.59375 51.0625 C 61.703125 50.890625 61.800781 50.71875 61.890625 50.546875 C 62.847656 48.746094 62.949219 46.917969 64.960938 44.933594 C 65.21875 44.675781 65.496094 44.445312 65.792969 44.238281 Z M 35.773438 50.214844 C 35.765625 50.695312 35.671875 51.152344 35.480469 51.59375 C 35.292969 52.035156 35.03125 52.421875 34.6875 52.757812 C 34.347656 53.09375 33.957031 53.351562 33.511719 53.535156 C 33.070312 53.714844 32.609375 53.808594 32.132812 53.808594 C 31.652344 53.808594 31.191406 53.714844 30.75 53.535156 C 30.304688 53.351562 29.914062 53.09375 29.574219 52.757812 C 29.230469 52.421875 28.96875 52.035156 28.78125 51.59375 C 28.589844 51.152344 28.496094 50.695312 28.488281 50.214844 C 28.488281 50.199219 28.492188 50.183594 28.492188 50.167969 L 35.769531 50.167969 C 35.769531 50.183594 35.773438 50.199219 35.773438 50.214844 Z M 44.417969 14.183594 C 44.324219 13.5 44.144531 12.070312 44.164062 11.695312 C 44.285156 9.085938 46.105469 7.050781 49.109375 7.1875 C 49.613281 7.210938 50.101562 7.316406 50.574219 7.496094 C 51.046875 7.675781 51.480469 7.925781 51.871094 8.242188 C 52.261719 8.5625 52.597656 8.933594 52.871094 9.359375 C 53.144531 9.785156 53.34375 10.242188 53.46875 10.730469 L 48.875 10.515625 C 48.742188 10.511719 48.628906 10.550781 48.53125 10.640625 C 48.433594 10.730469 48.382812 10.839844 48.375 10.972656 L 48.304688 12.527344 C 48.296875 12.675781 48.335938 12.8125 48.417969 12.933594 C 48.503906 13.054688 48.617188 13.140625 48.757812 13.1875 L 53.277344 14.65625 C 52.996094 15.5 52.582031 16.273438 52.046875 16.980469 C 51.960938 17.089844 51.855469 17.164062 51.722656 17.199219 C 51.589844 17.238281 51.460938 17.230469 51.332031 17.183594 L 44.808594 14.679688 C 44.578125 14.589844 44.449219 14.425781 44.417969 14.183594 Z M 18.15625 24.027344 L 9.835938 24.027344 C 9.714844 24.027344 9.601562 24.003906 9.492188 23.953125 C 9.378906 23.90625 9.285156 23.835938 9.203125 23.746094 C 9.125 23.65625 9.066406 23.554688 9.027344 23.441406 C 8.992188 23.328125 8.980469 23.210938 8.992188 23.089844 C 9.035156 22.648438 9.441406 22.332031 9.882812 22.332031 L 20.332031 22.332031 C 20.453125 22.332031 20.570312 22.304688 20.679688 22.257812 C 20.789062 22.207031 20.882812 22.140625 20.964844 22.050781 C 21.042969 21.960938 21.101562 21.859375 21.140625 21.746094 C 21.175781 21.628906 21.191406 21.511719 21.175781 21.394531 C 21.132812 20.953125 20.730469 20.632812 20.285156 20.632812 L 11.914062 20.632812 C 11.679688 20.632812 11.480469 20.550781 11.3125 20.386719 C 11.148438 20.21875 11.066406 20.019531 11.066406 19.785156 C 11.066406 19.550781 11.148438 19.351562 11.3125 19.183594 C 11.480469 19.019531 11.679688 18.9375 11.914062 18.9375 L 20.332031 18.9375 C 20.453125 18.9375 20.570312 18.910156 20.679688 18.863281 C 20.789062 18.8125 20.882812 18.746094 20.964844 18.65625 C 21.042969 18.566406 21.101562 18.464844 21.140625 18.351562 C 21.175781 18.238281 21.191406 18.121094 21.175781 18 C 21.132812 17.558594 20.730469 17.238281 20.285156 17.238281 L 14.433594 17.238281 C 14.316406 17.238281 14.199219 17.214844 14.089844 17.167969 C 13.980469 17.117188 13.886719 17.046875 13.804688 16.960938 C 13.722656 16.871094 13.664062 16.769531 13.628906 16.652344 C 13.589844 16.539062 13.578125 16.421875 13.589844 16.304688 C 13.636719 15.863281 14.039062 15.542969 14.484375 15.542969 L 18.15625 15.542969 L 18.15625 14.566406 C 18.15625 14.335938 18.238281 14.136719 18.402344 13.972656 C 18.570312 13.808594 18.765625 13.726562 19 13.726562 L 37.773438 13.726562 C 38.003906 13.726562 38.203125 13.808594 38.367188 13.972656 C 38.53125 14.136719 38.613281 14.335938 38.613281 14.566406 L 38.613281 30.960938 C 38.613281 31.117188 38.582031 31.269531 38.523438 31.414062 C 38.464844 31.558594 38.378906 31.683594 38.269531 31.792969 C 38.15625 31.90625 38.03125 31.988281 37.886719 32.050781 C 37.742188 32.109375 37.59375 32.140625 37.4375 32.140625 L 19 32.140625 C 18.765625 32.140625 18.566406 32.058594 18.402344 31.894531 C 18.238281 31.730469 18.15625 31.53125 18.15625 31.296875 L 18.15625 25.722656 L 20.332031 25.722656 C 20.453125 25.722656 20.570312 25.699219 20.679688 25.652344 C 20.789062 25.601562 20.882812 25.53125 20.964844 25.445312 C 21.042969 25.355469 21.101562 25.253906 21.140625 25.136719 C 21.175781 25.023438 21.191406 24.90625 21.175781 24.789062 C 21.132812 24.347656 20.730469 24.027344 20.285156 24.027344 Z M 18.15625 24.027344 " fill-opacity="1" fill-rule="nonzero"/></g></svg>