<svg xmlns="http://www.w3.org/2000/svg" xmlns:xlink="http://www.w3.org/1999/xlink" width="114" zoomAndPan="magnify" viewBox="0 0 85.5 71.249999" height="95" preserveAspectRatio="xMidYMid meet" version="1.0"><defs><clipPath id="1853330174"><path d="M 22.199219 18.554688 L 59.308594 18.554688 L 59.308594 48.984375 L 22.199219 48.984375 Z M 22.199219 18.554688 " clip-rule="nonzero"/></clipPath></defs><g clip-path="url(#1853330174)"><path fill="#009444" d="M 52.308594 39.617188 C 52.710938 40.074219 52.953125 40.605469 53.042969 41.207031 C 53.132812 41.808594 53.050781 42.386719 52.796875 42.941406 C 52.546875 43.492188 52.164062 43.9375 51.65625 44.265625 C 51.144531 44.59375 50.582031 44.757812 49.976562 44.757812 L 31.648438 44.757812 C 31.039062 44.757812 30.476562 44.59375 29.96875 44.265625 C 29.457031 43.9375 29.074219 43.492188 28.824219 42.941406 C 28.570312 42.386719 28.488281 41.808594 28.578125 41.207031 C 28.667969 40.605469 28.914062 40.074219 29.3125 39.617188 C 30.269531 38.523438 31.003906 37.296875 31.511719 35.9375 C 32.023438 34.582031 32.277344 33.175781 32.277344 31.722656 L 32.277344 28.761719 C 32.277344 28.226562 32.328125 27.695312 32.429688 27.171875 C 32.527344 26.644531 32.675781 26.132812 32.875 25.636719 C 33.070312 25.136719 33.3125 24.664062 33.597656 24.210938 C 33.882812 23.757812 34.207031 23.335938 34.574219 22.945312 C 34.9375 22.554688 35.335938 22.203125 35.765625 21.886719 C 36.199219 21.570312 36.65625 21.296875 37.140625 21.066406 C 37.621094 20.835938 38.121094 20.652344 38.640625 20.519531 C 39.15625 20.382812 39.683594 20.296875 40.214844 20.257812 C 40.214844 20.25 40.210938 20.238281 40.210938 20.230469 L 40.210938 19.164062 C 40.210938 18.996094 40.269531 18.855469 40.386719 18.738281 C 40.503906 18.621094 40.644531 18.5625 40.808594 18.5625 C 40.976562 18.5625 41.117188 18.621094 41.234375 18.738281 C 41.351562 18.855469 41.410156 18.996094 41.410156 19.164062 L 41.410156 20.230469 C 41.410156 20.238281 41.40625 20.25 41.40625 20.257812 C 41.9375 20.296875 42.464844 20.382812 42.980469 20.519531 C 43.5 20.652344 44 20.835938 44.480469 21.066406 C 44.964844 21.296875 45.421875 21.570312 45.851562 21.886719 C 46.285156 22.203125 46.683594 22.554688 47.046875 22.945312 C 47.414062 23.335938 47.738281 23.757812 48.023438 24.210938 C 48.308594 24.664062 48.550781 25.136719 48.746094 25.636719 C 48.945312 26.132812 49.09375 26.644531 49.191406 27.171875 C 49.292969 27.695312 49.34375 28.226562 49.34375 28.761719 L 49.34375 31.722656 C 49.34375 33.175781 49.597656 34.582031 50.109375 35.9375 C 50.621094 37.296875 51.351562 38.523438 52.308594 39.617188 Z M 29.785156 26.082031 C 29.652344 25.980469 29.503906 25.9375 29.339844 25.960938 C 29.175781 25.980469 29.042969 26.058594 28.941406 26.1875 C 27.28125 28.328125 26.277344 30.746094 25.933594 33.433594 C 25.914062 33.597656 25.953125 33.746094 26.054688 33.875 C 26.15625 34.007812 26.289062 34.082031 26.453125 34.105469 C 26.480469 34.109375 26.503906 34.109375 26.53125 34.109375 C 26.679688 34.109375 26.8125 34.058594 26.925781 33.960938 C 27.039062 33.859375 27.105469 33.734375 27.125 33.585938 C 27.441406 31.113281 28.363281 28.890625 29.890625 26.921875 C 29.992188 26.792969 30.03125 26.644531 30.011719 26.480469 C 29.988281 26.316406 29.914062 26.183594 29.785156 26.082031 Z M 28.507812 22.210938 C 28.390625 22.09375 28.25 22.035156 28.085938 22.035156 C 27.917969 22.035156 27.777344 22.09375 27.660156 22.210938 C 26.792969 23.070312 26.019531 24.007812 25.339844 25.023438 C 24.660156 26.039062 24.085938 27.109375 23.621094 28.238281 C 23.152344 29.367188 22.800781 30.53125 22.5625 31.730469 C 22.328125 32.929688 22.210938 34.140625 22.210938 35.359375 C 22.210938 35.527344 22.269531 35.667969 22.386719 35.785156 C 22.503906 35.902344 22.648438 35.960938 22.8125 35.960938 C 22.976562 35.960938 23.121094 35.902344 23.238281 35.785156 C 23.355469 35.667969 23.414062 35.527344 23.414062 35.359375 C 23.40625 33.050781 23.84375 30.832031 24.726562 28.699219 C 25.613281 26.566406 26.871094 24.6875 28.507812 23.058594 C 28.625 22.941406 28.683594 22.800781 28.683594 22.632812 C 28.683594 22.46875 28.625 22.328125 28.507812 22.210938 Z M 51.839844 26.082031 C 51.707031 26.183594 51.632812 26.316406 51.609375 26.480469 C 51.589844 26.644531 51.628906 26.792969 51.730469 26.921875 C 53.257812 28.890625 54.179688 31.113281 54.496094 33.585938 C 54.515625 33.734375 54.582031 33.859375 54.695312 33.960938 C 54.808594 34.058594 54.941406 34.109375 55.089844 34.109375 C 55.117188 34.109375 55.140625 34.109375 55.167969 34.105469 C 55.332031 34.082031 55.464844 34.007812 55.566406 33.875 C 55.667969 33.746094 55.707031 33.597656 55.6875 33.433594 C 55.34375 30.746094 54.339844 28.328125 52.679688 26.1875 C 52.578125 26.058594 52.445312 25.980469 52.28125 25.960938 C 52.117188 25.9375 51.96875 25.980469 51.835938 26.082031 Z M 53.960938 22.210938 C 53.84375 22.097656 53.703125 22.039062 53.539062 22.042969 C 53.375 22.042969 53.234375 22.101562 53.121094 22.21875 C 53.003906 22.332031 52.945312 22.472656 52.945312 22.636719 C 52.945312 22.800781 53 22.941406 53.113281 23.058594 C 54.75 24.6875 56.007812 26.566406 56.894531 28.699219 C 57.777344 30.832031 58.214844 33.050781 58.207031 35.359375 C 58.207031 35.527344 58.265625 35.667969 58.382812 35.785156 C 58.5 35.902344 58.644531 35.960938 58.808594 35.960938 C 58.972656 35.960938 59.117188 35.902344 59.234375 35.785156 C 59.351562 35.667969 59.40625 35.527344 59.40625 35.359375 C 59.410156 34.140625 59.292969 32.929688 59.058594 31.730469 C 58.820312 30.53125 58.46875 29.367188 58 28.238281 C 57.535156 27.109375 56.960938 26.039062 56.28125 25.023438 C 55.601562 24.007812 54.828125 23.070312 53.960938 22.210938 Z M 41.34375 49.160156 C 41.816406 49.160156 42.277344 49.082031 42.722656 48.929688 C 43.171875 48.777344 43.582031 48.554688 43.953125 48.265625 C 44.328125 47.976562 44.644531 47.632812 44.902344 47.238281 C 45.164062 46.84375 45.351562 46.417969 45.46875 45.960938 L 37.21875 45.960938 C 37.335938 46.417969 37.523438 46.84375 37.785156 47.238281 C 38.042969 47.632812 38.359375 47.976562 38.734375 48.265625 C 39.105469 48.554688 39.515625 48.777344 39.964844 48.929688 C 40.410156 49.082031 40.871094 49.160156 41.34375 49.160156 Z M 41.34375 49.160156 " fill-opacity="1" fill-rule="nonzero"/></g></svg>