<svg xmlns="http://www.w3.org/2000/svg" xmlns:xlink="http://www.w3.org/1999/xlink" width="114" zoomAndPan="magnify" viewBox="0 0 85.5 71.249999" height="95" preserveAspectRatio="xMidYMid meet" version="1.0"><defs><clipPath id="f21274dd17"><path d="M 16.476562 11.082031 L 60 11.082031 L 60 59.324219 L 16.476562 59.324219 Z M 16.476562 11.082031 " clip-rule="nonzero"/></clipPath><clipPath id="70e88a4a4c"><path d="M 46 28 L 68.429688 28 L 68.429688 50 L 46 50 Z M 46 28 " clip-rule="nonzero"/></clipPath></defs><g clip-path="url(#f21274dd17)"><path fill="#009444" d="M 17.132812 15.074219 C 16.804688 14.726562 16.609375 14.308594 16.554688 13.820312 C 16.472656 13.214844 16.625 12.671875 17.003906 12.1875 C 17.382812 11.714844 17.875 11.445312 18.480469 11.375 C 19.082031 11.296875 19.621094 11.445312 20.097656 11.828125 C 20.175781 11.894531 20.25 11.960938 20.324219 12.027344 L 32.402344 24.753906 C 33.921875 24.140625 35.15625 23.867188 36.097656 23.9375 L 36.117188 23.96875 L 43.28125 24.488281 C 44.273438 24.6875 44.984375 25.238281 45.414062 26.148438 L 50.984375 34.429688 C 51.183594 34.703125 51.304688 35.027344 51.355469 35.398438 C 51.421875 36 51.269531 36.539062 50.894531 37.015625 C 50.527344 37.5 50.042969 37.777344 49.4375 37.847656 C 48.824219 37.914062 48.277344 37.765625 47.800781 37.398438 C 47.609375 37.25 47.453125 37.078125 47.328125 36.890625 L 41.867188 28.816406 L 38.964844 28.609375 L 44.199219 37.332031 C 44.921875 38.671875 45.445312 39.910156 45.769531 41.046875 C 46.453125 43.015625 47.351562 44.25 48.464844 44.75 C 50.261719 45.105469 52.703125 43.910156 55.796875 41.171875 L 55.808594 41.183594 C 55.851562 41.148438 55.894531 41.113281 55.945312 41.078125 C 56.433594 40.710938 56.980469 40.574219 57.585938 40.664062 C 58.183594 40.742188 58.664062 41.023438 59.03125 41.511719 C 59.398438 42 59.535156 42.546875 59.445312 43.152344 C 59.359375 43.683594 59.125 44.128906 58.734375 44.492188 C 54.007812 48.675781 49.941406 50.101562 46.527344 48.773438 C 44.335938 47.386719 42.570312 45.628906 41.238281 43.496094 C 39.1875 47.84375 40.253906 51.734375 44.441406 55.160156 C 44.542969 55.257812 44.640625 55.359375 44.734375 55.476562 C 45.023438 55.824219 45.1875 56.214844 45.230469 56.648438 C 45.242188 56.785156 45.242188 56.929688 45.234375 57.074219 C 45.171875 57.6875 44.910156 58.183594 44.4375 58.574219 C 43.976562 58.953125 43.441406 59.117188 42.832031 59.058594 C 42.375 59.015625 41.980469 58.855469 41.644531 58.582031 L 41.636719 58.589844 C 40.867188 57.957031 40.171875 57.304688 39.550781 56.628906 C 39.429688 56.496094 39.308594 56.363281 39.191406 56.226562 C 35.296875 51.734375 34.5625 46.347656 36.988281 40.0625 L 30.589844 30.757812 L 28.707031 27.292969 L 17.128906 15.082031 Z M 17.132812 15.074219 " fill-opacity="1" fill-rule="evenodd"/></g><path fill="#009444" d="M 30.441406 15.324219 C 31.25 14.285156 32.304688 13.691406 33.613281 13.542969 C 34.910156 13.390625 36.074219 13.722656 37.105469 14.535156 C 38.136719 15.34375 38.726562 16.398438 38.878906 17.703125 C 39.035156 18.996094 38.707031 20.164062 37.894531 21.199219 C 37.089844 22.230469 36.035156 22.824219 34.734375 22.980469 C 33.4375 23.125 32.269531 22.796875 31.238281 22 C 30.964844 21.777344 30.726562 21.542969 30.519531 21.300781 C 30.199219 20.933594 29.957031 20.535156 29.789062 20.097656 C 29.625 19.703125 29.515625 19.277344 29.46875 18.820312 C 29.304688 17.519531 29.628906 16.355469 30.441406 15.324219 Z M 30.441406 15.324219 " fill-opacity="1" fill-rule="evenodd"/><g clip-path="url(#70e88a4a4c)"><path fill="#009444" d="M 55.054688 40.324219 C 52.453125 42.625 50.410156 43.726562 48.925781 43.625 C 48.183594 43.160156 47.558594 42.21875 47.050781 40.800781 C 46.808594 39.933594 46.828125 39.152344 47.109375 38.464844 C 47.851562 39.039062 48.703125 39.277344 49.65625 39.179688 L 49.675781 39.179688 C 50.625 39.0625 51.390625 38.621094 51.976562 37.855469 L 51.964844 37.875 C 52.546875 37.132812 52.785156 36.289062 52.675781 35.347656 C 52.671875 35.339844 52.667969 35.332031 52.671875 35.316406 C 52.59375 34.738281 52.40625 34.238281 52.105469 33.816406 C 52.09375 33.804688 52.085938 33.792969 52.078125 33.785156 L 48.5 28.457031 C 49.136719 28.847656 49.738281 29.214844 50.300781 29.5625 C 52.367188 30.828125 53.929688 31.800781 54.980469 32.46875 C 60.902344 36.253906 65.417969 39.808594 68.523438 43.128906 L 68.503906 43.324219 C 67.320312 43.011719 66.109375 42.996094 64.871094 43.269531 C 63.386719 43.59375 62.566406 44.269531 62.414062 45.296875 C 62.207031 46.804688 61.941406 47.875 61.617188 48.503906 C 61.085938 49.542969 60.253906 50.003906 59.125 49.898438 C 58.960938 49.882812 58.367188 49.757812 57.339844 49.53125 C 56.3125 49.300781 55.714844 49.179688 55.554688 49.164062 C 55.183594 49.128906 54.84375 49.125 54.535156 49.152344 C 56.152344 48.304688 57.859375 47.09375 59.640625 45.511719 C 59.648438 45.507812 59.65625 45.5 59.671875 45.496094 C 60.269531 44.9375 60.632812 44.25 60.761719 43.4375 L 60.761719 43.425781 C 60.902344 42.46875 60.683594 41.609375 60.105469 40.847656 C 59.53125 40.085938 58.78125 39.640625 57.855469 39.519531 C 56.90625 39.375 56.046875 39.59375 55.285156 40.167969 L 55.308594 40.140625 C 55.292969 40.152344 55.277344 40.164062 55.265625 40.175781 C 55.1875 40.214844 55.117188 40.265625 55.054688 40.324219 Z M 55.054688 40.324219 " fill-opacity="1" fill-rule="evenodd"/></g></svg>