<svg xmlns="http://www.w3.org/2000/svg" xmlns:xlink="http://www.w3.org/1999/xlink" width="202" zoomAndPan="magnify" viewBox="0 0 151.5 46.499999" height="62" preserveAspectRatio="xMidYMid meet" version="1.0"><path fill="#009444" d="M 33.304688 15.105469 C 34.027344 16.902344 34.371094 18.617188 34.472656 20.199219 C 34.535156 20.746094 34.578125 21.300781 34.578125 21.863281 C 34.578125 24.714844 33.742188 27.375 32.308594 29.613281 C 29.730469 33.644531 25.207031 36.320312 20.046875 36.320312 C 12.023438 36.320312 5.054688 30.53125 5.050781 21.507812 C 5.050781 21.488281 5.875 10.886719 19.425781 10.351562 C 19.425781 10.351562 -0.589844 15.96875 10.527344 30.140625 C 10.527344 30.140625 9.734375 23.214844 19.152344 18.808594 C 22.058594 17.46875 26.011719 14.679688 26.710938 10.171875 L 26.707031 10.171875 C 26.707031 10.171875 26.816406 9.546875 26.808594 8.855469 C 24.554688 7.671875 21.980469 6.996094 19.25 6.996094 C 11.121094 6.996094 4.390625 12.953125 3.222656 20.71875 C 3.105469 21.503906 3.042969 22.308594 3.042969 23.125 C 3.042969 32.035156 10.300781 39.257812 19.25 39.257812 C 25.703125 39.257812 31.269531 35.507812 33.878906 30.082031 C 34.890625 27.972656 35.460938 25.617188 35.460938 23.125 C 35.460938 20.203125 34.671875 17.46875 33.304688 15.105469 Z M 33.304688 15.105469 " fill-opacity="1" fill-rule="nonzero"/><path fill="#aa0b1e" d="M 25.898438 26.792969 C 25.898438 29.980469 23.304688 32.5625 20.101562 32.5625 C 16.898438 32.5625 14.304688 29.980469 14.304688 26.792969 C 14.304688 23.605469 16.898438 21.023438 20.101562 21.023438 C 23.304688 21.023438 25.898438 23.605469 25.898438 26.792969 Z M 25.898438 26.792969 " fill-opacity="1" fill-rule="nonzero"/><path fill="#ffffff" d="M 18.976562 27.804688 L 16.757812 27.804688 C 16.449219 27.804688 16.214844 27.570312 16.214844 27.261719 L 16.214844 26.214844 C 16.214844 25.90625 16.449219 25.671875 16.757812 25.671875 L 18.976562 25.671875 L 18.976562 23.464844 C 18.976562 23.160156 19.210938 22.921875 19.519531 22.921875 L 20.574219 22.921875 C 20.882812 22.921875 21.117188 23.160156 21.117188 23.464844 L 21.117188 25.671875 L 23.445312 25.671875 C 23.753906 25.671875 23.988281 25.90625 23.988281 26.214844 L 23.988281 27.261719 C 23.988281 27.570312 23.753906 27.804688 23.445312 27.804688 L 21.117188 27.804688 L 21.117188 30.121094 C 21.117188 30.425781 20.882812 30.660156 20.574219 30.660156 L 19.519531 30.660156 C 19.210938 30.660156 18.976562 30.425781 18.976562 30.121094 Z M 18.976562 27.804688 " fill-opacity="1" fill-rule="nonzero"/><path fill="#009444" d="M 40.875 37.0625 L 40.875 30.804688 L 43.75 30.804688 C 44.324219 30.804688 44.820312 30.898438 45.234375 31.082031 C 45.652344 31.265625 45.972656 31.535156 46.203125 31.882812 C 46.429688 32.230469 46.542969 32.644531 46.542969 33.121094 C 46.542969 33.589844 46.429688 34 46.203125 34.34375 C 45.972656 34.691406 45.652344 34.957031 45.234375 35.144531 C 44.820312 35.332031 44.324219 35.425781 43.75 35.425781 L 41.863281 35.425781 L 42.652344 34.65625 L 42.652344 37.0625 Z M 42.652344 34.84375 L 41.863281 34.03125 L 43.640625 34.03125 C 44.011719 34.03125 44.289062 33.953125 44.472656 33.789062 C 44.65625 33.628906 44.746094 33.40625 44.746094 33.121094 C 44.746094 32.828125 44.65625 32.601562 44.472656 32.441406 C 44.289062 32.28125 44.011719 32.199219 43.640625 32.199219 L 41.863281 32.199219 L 42.652344 31.386719 Z M 42.652344 34.84375 " fill-opacity="1" fill-rule="nonzero"/><path fill="#009444" d="M 56.371094 37.0625 L 54.589844 37.0625 L 54.589844 30.804688 L 56.371094 30.804688 Z M 58.921875 34.621094 L 56.242188 34.621094 L 56.242188 33.15625 L 58.921875 33.15625 Z M 58.792969 30.804688 L 60.574219 30.804688 L 60.574219 37.0625 L 58.792969 37.0625 Z M 58.792969 30.804688 " fill-opacity="1" fill-rule="nonzero"/><path fill="#009444" d="M 68.261719 37.0625 L 71.035156 30.804688 L 72.789062 30.804688 L 75.574219 37.0625 L 73.722656 37.0625 L 71.546875 31.671875 L 72.25 31.671875 L 70.074219 37.0625 Z M 69.78125 35.847656 L 70.238281 34.542969 L 73.308594 34.542969 L 73.765625 35.847656 Z M 69.78125 35.847656 " fill-opacity="1" fill-rule="nonzero"/><path fill="#009444" d="M 83.261719 37.0625 L 83.261719 30.804688 L 86.136719 30.804688 C 86.710938 30.804688 87.207031 30.898438 87.621094 31.082031 C 88.039062 31.265625 88.359375 31.535156 88.589844 31.882812 C 88.816406 32.230469 88.929688 32.644531 88.929688 33.121094 C 88.929688 33.589844 88.816406 33.996094 88.589844 34.339844 C 88.359375 34.683594 88.039062 34.945312 87.621094 35.128906 C 87.207031 35.308594 86.710938 35.398438 86.136719 35.398438 L 84.25 35.398438 L 85.039062 34.65625 L 85.039062 37.0625 Z M 85.039062 34.84375 L 84.25 34.03125 L 86.027344 34.03125 C 86.398438 34.03125 86.675781 33.953125 86.859375 33.789062 C 87.042969 33.628906 87.132812 33.40625 87.132812 33.121094 C 87.132812 32.828125 87.042969 32.601562 86.859375 32.441406 C 86.675781 32.28125 86.398438 32.199219 86.027344 32.199219 L 84.25 32.199219 L 85.039062 31.386719 Z M 87.152344 37.0625 L 85.589844 34.78125 L 87.484375 34.78125 L 89.054688 37.0625 Z M 87.152344 37.0625 " fill-opacity="1" fill-rule="nonzero"/><path fill="#009444" d="M 97.09375 37.0625 L 97.09375 30.804688 L 98.558594 30.804688 L 101.164062 35.058594 L 100.390625 35.058594 L 102.921875 30.804688 L 104.386719 30.804688 L 104.40625 37.0625 L 102.769531 37.0625 L 102.753906 33.28125 L 103.03125 33.28125 L 101.136719 36.445312 L 100.34375 36.445312 L 98.394531 33.28125 L 98.738281 33.28125 L 98.738281 37.0625 Z M 97.09375 37.0625 " fill-opacity="1" fill-rule="nonzero"/><path fill="#009444" d="M 112.09375 37.0625 L 114.871094 30.804688 L 116.621094 30.804688 L 119.40625 37.0625 L 117.554688 37.0625 L 115.382812 31.671875 L 116.082031 31.671875 L 113.90625 37.0625 Z M 113.613281 35.847656 L 114.070312 34.542969 L 117.140625 34.542969 L 117.601562 35.847656 Z M 113.613281 35.847656 " fill-opacity="1" fill-rule="nonzero"/><path fill="#009444" d="M 130.140625 37.1875 C 129.640625 37.1875 129.183594 37.109375 128.761719 36.949219 C 128.339844 36.792969 127.972656 36.566406 127.664062 36.277344 C 127.355469 35.984375 127.113281 35.640625 126.941406 35.242188 C 126.765625 34.847656 126.679688 34.410156 126.679688 33.933594 C 126.679688 33.457031 126.765625 33.019531 126.941406 32.625 C 127.113281 32.226562 127.355469 31.882812 127.664062 31.589844 C 127.972656 31.300781 128.339844 31.074219 128.761719 30.917969 C 129.183594 30.757812 129.640625 30.679688 130.140625 30.679688 C 130.71875 30.679688 131.238281 30.78125 131.695312 30.984375 C 132.15625 31.1875 132.535156 31.476562 132.84375 31.859375 L 131.710938 32.878906 C 131.507812 32.640625 131.285156 32.457031 131.042969 32.332031 C 130.800781 32.207031 130.527344 32.144531 130.230469 32.144531 C 129.972656 32.144531 129.734375 32.1875 129.519531 32.269531 C 129.304688 32.355469 129.121094 32.476562 128.964844 32.632812 C 128.8125 32.789062 128.695312 32.980469 128.609375 33.199219 C 128.519531 33.421875 128.476562 33.664062 128.476562 33.933594 C 128.476562 34.199219 128.519531 34.445312 128.609375 34.667969 C 128.695312 34.886719 128.8125 35.074219 128.964844 35.234375 C 129.121094 35.390625 129.304688 35.511719 129.519531 35.59375 C 129.734375 35.679688 129.972656 35.722656 130.230469 35.722656 C 130.527344 35.722656 130.800781 35.65625 131.042969 35.53125 C 131.285156 35.40625 131.507812 35.226562 131.710938 34.988281 L 132.84375 36.007812 C 132.535156 36.382812 132.15625 36.671875 131.695312 36.878906 C 131.238281 37.085938 130.71875 37.1875 130.140625 37.1875 Z M 130.140625 37.1875 " fill-opacity="1" fill-rule="nonzero"/><path fill="#009444" d="M 142.382812 37.0625 L 142.382812 34.417969 L 142.792969 35.480469 L 139.984375 30.804688 L 141.859375 30.804688 L 143.890625 34.191406 L 142.804688 34.191406 L 144.84375 30.804688 L 146.566406 30.804688 L 143.765625 35.480469 L 144.160156 34.417969 L 144.160156 37.0625 Z M 142.382812 37.0625 " fill-opacity="1" fill-rule="nonzero"/><path fill="#aa0b1e" d="M 52.304688 21.59375 C 52.113281 21.988281 51.890625 22.324219 51.636719 22.605469 C 51.078125 23.214844 50.253906 23.519531 49.164062 23.519531 C 48.039062 23.519531 47.164062 23.140625 46.542969 22.386719 C 45.921875 21.632812 45.613281 20.234375 45.613281 18.199219 C 45.613281 16.558594 45.871094 15.351562 46.394531 14.582031 C 47.082031 13.550781 48.070312 13.03125 49.363281 13.03125 C 49.933594 13.03125 50.449219 13.148438 50.914062 13.382812 C 51.375 13.617188 51.765625 13.949219 52.082031 14.382812 C 52.121094 14.4375 52.160156 14.5 52.199219 14.566406 L 57.367188 14.566406 L 57.671875 14.496094 C 57.027344 12.558594 56.039062 11.125 54.707031 10.1875 C 53.378906 9.253906 51.550781 8.785156 49.226562 8.785156 C 46.253906 8.785156 43.957031 9.601562 42.332031 11.230469 C 40.707031 12.863281 39.898438 15.199219 39.898438 18.238281 C 39.898438 20.515625 40.359375 22.386719 41.28125 23.847656 C 42.203125 25.308594 43.300781 26.328125 44.574219 26.90625 C 45.84375 27.488281 47.484375 27.777344 49.488281 27.777344 C 51.144531 27.777344 52.503906 27.539062 53.574219 27.0625 C 54.644531 26.585938 55.542969 25.882812 56.261719 24.945312 C 56.960938 24.042969 57.476562 22.925781 57.8125 21.59375 Z M 52.304688 21.59375 " fill-opacity="1" fill-rule="nonzero"/><path fill="#aa0b1e" d="M 58.875 27.464844 L 58.875 9.097656 L 68.382812 9.097656 C 70.144531 9.097656 71.488281 9.246094 72.421875 9.546875 C 73.351562 9.847656 74.105469 10.40625 74.675781 11.222656 C 75.246094 12.035156 75.53125 13.027344 75.53125 14.195312 C 75.53125 15.214844 75.3125 16.09375 74.875 16.835938 C 74.4375 17.574219 73.839844 18.171875 73.074219 18.632812 C 72.589844 18.925781 71.921875 19.167969 71.070312 19.359375 C 71.75 19.585938 72.246094 19.808594 72.554688 20.035156 C 72.765625 20.1875 73.070312 20.507812 73.46875 21 C 73.867188 21.496094 74.132812 21.875 74.269531 22.144531 L 77.027344 27.464844 L 70.585938 27.464844 L 67.535156 21.851562 C 67.152344 21.125 66.804688 20.652344 66.503906 20.4375 C 66.09375 20.152344 65.628906 20.011719 65.105469 20.011719 L 64.605469 20.011719 L 64.605469 27.464844 Z M 64.605469 16.539062 L 67.007812 16.539062 C 67.269531 16.539062 67.773438 16.457031 68.519531 16.289062 C 68.898438 16.214844 69.207031 16.023438 69.445312 15.710938 C 69.683594 15.402344 69.804688 15.046875 69.804688 14.648438 C 69.804688 14.054688 69.613281 13.601562 69.238281 13.28125 C 68.859375 12.964844 68.148438 12.804688 67.109375 12.804688 L 64.605469 12.804688 Z M 64.605469 16.539062 " fill-opacity="1" fill-rule="nonzero"/><path fill="#aa0b1e" d="M 77.75 9.097656 L 93.035156 9.097656 L 93.035156 13.019531 L 83.464844 13.019531 L 83.464844 15.9375 L 92.34375 15.9375 L 92.34375 19.683594 L 83.464844 19.683594 L 83.464844 23.304688 L 93.3125 23.304688 L 93.3125 27.464844 L 77.75 27.464844 Z M 77.75 9.097656 " fill-opacity="1" fill-rule="nonzero"/><path fill="#aa0b1e" d="M 123.386719 24.433594 L 116.914062 24.433594 L 116.011719 27.464844 L 110.191406 27.464844 L 117.128906 9.097656 L 123.347656 9.097656 L 130.285156 27.464844 L 124.3125 27.464844 Z M 122.203125 20.460938 L 120.167969 13.859375 L 118.152344 20.460938 Z M 122.203125 20.460938 " fill-opacity="1" fill-rule="nonzero"/><path fill="#aa0b1e" d="M 145.304688 18.769531 C 144.8125 17.960938 144.027344 17.28125 142.949219 16.734375 C 142.101562 16.304688 140.808594 15.878906 139.089844 15.457031 C 138.984375 15.453125 138.898438 15.429688 138.820312 15.390625 C 138.429688 15.296875 138.027344 15.203125 137.59375 15.113281 C 136.585938 14.902344 135.949219 14.675781 135.679688 14.433594 C 135.402344 14.199219 135.265625 13.9375 135.265625 13.644531 C 135.265625 13.246094 135.433594 12.90625 135.769531 12.625 C 136.101562 12.34375 136.601562 12.203125 137.265625 12.203125 C 138.070312 12.203125 138.703125 12.390625 139.160156 12.769531 C 139.546875 13.085938 139.816406 13.5625 139.980469 14.195312 L 145.425781 14.195312 C 145.183594 12.324219 144.449219 10.957031 143.226562 10.09375 C 141.988281 9.222656 140.191406 8.785156 137.832031 8.785156 C 135.910156 8.785156 134.398438 9.023438 133.292969 9.503906 C 132.191406 9.984375 131.363281 10.644531 130.8125 11.484375 C 130.265625 12.324219 129.988281 13.214844 129.988281 14.160156 C 129.988281 15.597656 130.527344 16.777344 131.601562 17.703125 C 132.667969 18.632812 134.449219 19.375 136.949219 19.933594 C 138.480469 20.269531 139.453125 20.625 139.871094 21 C 140.292969 21.375 140.503906 21.800781 140.503906 22.277344 C 140.503906 22.777344 140.28125 23.21875 139.839844 23.601562 C 139.402344 23.980469 138.773438 24.167969 137.957031 24.167969 C 136.867188 24.167969 136.027344 23.796875 135.441406 23.054688 C 135.136719 22.667969 134.921875 22.132812 134.789062 21.449219 L 129.304688 21.449219 C 129.472656 23.277344 130.152344 24.785156 131.347656 25.972656 C 132.558594 27.175781 134.730469 27.777344 137.871094 27.777344 C 139.660156 27.777344 141.140625 27.519531 142.316406 27.007812 C 143.488281 26.492188 144.40625 25.742188 145.058594 24.746094 C 145.714844 23.753906 146.039062 22.667969 146.039062 21.488281 C 146.039062 20.484375 145.796875 19.578125 145.304688 18.769531 Z M 145.304688 18.769531 " fill-opacity="1" fill-rule="nonzero"/><path fill="#aa0b1e" d="M 94.5 8.9375 L 103.050781 8.9375 C 104.734375 8.9375 106.09375 9.164062 107.132812 9.617188 C 108.167969 10.074219 109.027344 10.726562 109.703125 11.578125 C 110.382812 12.429688 110.871094 13.417969 111.175781 14.546875 C 111.480469 15.675781 111.632812 16.875 111.632812 18.136719 C 111.632812 20.117188 111.40625 21.652344 110.953125 22.746094 C 110.503906 23.835938 109.875 24.75 109.070312 25.488281 C 108.265625 26.222656 107.402344 26.714844 106.476562 26.960938 C 105.214844 27.296875 104.074219 27.464844 103.050781 27.464844 L 94.5 27.464844 Z M 100.253906 13.132812 L 100.253906 23.257812 L 101.664062 23.257812 C 102.867188 23.257812 103.722656 23.125 104.230469 22.859375 C 104.738281 22.59375 105.136719 22.128906 105.425781 21.46875 C 105.710938 20.804688 105.855469 19.734375 105.855469 18.25 C 105.855469 16.289062 105.535156 14.945312 104.890625 14.21875 C 104.246094 13.496094 103.179688 13.132812 101.691406 13.132812 Z M 100.253906 13.132812 " fill-opacity="1" fill-rule="nonzero"/></svg>