<svg xmlns="http://www.w3.org/2000/svg" xmlns:xlink="http://www.w3.org/1999/xlink" width="202" zoomAndPan="magnify" viewBox="0 0 151.5 46.499999" height="62" preserveAspectRatio="xMidYMid meet" version="1.0"><path fill="#ffffff" d="M 33.261719 15.144531 C 33.980469 16.945312 34.324219 18.667969 34.425781 20.253906 C 34.488281 20.800781 34.53125 21.359375 34.53125 21.925781 C 34.53125 24.785156 33.695312 27.453125 32.265625 29.703125 C 29.691406 33.746094 25.171875 36.433594 20.019531 36.433594 C 12.007812 36.433594 5.046875 30.621094 5.042969 21.566406 C 5.042969 21.550781 5.867188 10.910156 19.398438 10.371094 C 19.398438 10.371094 -0.589844 16.007812 10.511719 30.230469 C 10.511719 30.230469 9.71875 23.28125 19.125 18.859375 C 22.027344 17.515625 25.976562 14.71875 26.671875 10.191406 C 26.671875 10.191406 26.78125 9.566406 26.773438 8.871094 C 24.519531 7.683594 21.953125 7.003906 19.226562 7.003906 C 11.105469 7.003906 4.382812 12.980469 3.21875 20.777344 C 3.101562 21.5625 3.039062 22.371094 3.039062 23.191406 C 3.039062 32.128906 10.289062 39.378906 19.226562 39.378906 C 25.667969 39.378906 31.226562 35.613281 33.832031 30.167969 C 34.84375 28.054688 35.410156 25.691406 35.410156 23.191406 C 35.410156 20.257812 34.625 17.515625 33.261719 15.144531 Z M 33.261719 15.144531 " fill-opacity="1" fill-rule="nonzero"/><path fill="#ffffff" d="M 25.863281 26.871094 C 25.863281 30.066406 23.269531 32.660156 20.074219 32.660156 C 16.875 32.660156 14.285156 30.066406 14.285156 26.871094 C 14.285156 23.671875 16.875 21.082031 20.074219 21.082031 C 23.269531 21.082031 25.863281 23.671875 25.863281 26.871094 Z M 25.863281 26.871094 " fill-opacity="1" fill-rule="nonzero"/><path fill="#aa0b1e" d="M 18.949219 27.886719 L 16.734375 27.886719 C 16.425781 27.886719 16.191406 27.648438 16.191406 27.34375 L 16.191406 26.289062 C 16.191406 25.980469 16.425781 25.746094 16.734375 25.746094 L 18.949219 25.746094 L 18.949219 23.53125 C 18.949219 23.222656 19.183594 22.988281 19.492188 22.988281 L 20.546875 22.988281 C 20.855469 22.988281 21.089844 23.222656 21.089844 23.53125 L 21.089844 25.746094 L 23.410156 25.746094 C 23.71875 25.746094 23.957031 25.980469 23.957031 26.289062 L 23.957031 27.34375 C 23.957031 27.648438 23.71875 27.886719 23.410156 27.886719 L 21.089844 27.886719 L 21.089844 30.207031 C 21.089844 30.515625 20.855469 30.753906 20.546875 30.753906 L 19.492188 30.753906 C 19.183594 30.753906 18.949219 30.515625 18.949219 30.207031 Z M 18.949219 27.886719 " fill-opacity="1" fill-rule="nonzero"/><path fill="#ffffff" d="M 40.820312 37.175781 L 40.820312 30.894531 L 43.6875 30.894531 C 44.261719 30.894531 44.757812 30.988281 45.171875 31.175781 C 45.589844 31.359375 45.910156 31.628906 46.136719 31.976562 C 46.363281 32.328125 46.476562 32.742188 46.476562 33.21875 C 46.476562 33.691406 46.363281 34.101562 46.136719 34.449219 C 45.910156 34.796875 45.589844 35.0625 45.171875 35.25 C 44.757812 35.441406 44.261719 35.535156 43.6875 35.535156 L 41.804688 35.535156 L 42.59375 34.761719 L 42.59375 37.175781 Z M 42.59375 34.949219 L 41.804688 34.132812 L 43.582031 34.132812 C 43.953125 34.132812 44.226562 34.054688 44.410156 33.890625 C 44.59375 33.730469 44.683594 33.507812 44.683594 33.21875 C 44.683594 32.925781 44.59375 32.699219 44.410156 32.539062 C 44.226562 32.375 43.953125 32.296875 43.582031 32.296875 L 41.804688 32.296875 L 42.59375 31.480469 Z M 42.59375 34.949219 " fill-opacity="1" fill-rule="nonzero"/><path fill="#ffffff" d="M 56.292969 37.175781 L 54.515625 37.175781 L 54.515625 30.894531 L 56.292969 30.894531 Z M 58.839844 34.726562 L 56.164062 34.726562 L 56.164062 33.253906 L 58.839844 33.253906 Z M 58.710938 30.894531 L 60.488281 30.894531 L 60.488281 37.175781 L 58.710938 37.175781 Z M 58.710938 30.894531 " fill-opacity="1" fill-rule="nonzero"/><path fill="#ffffff" d="M 68.167969 37.175781 L 70.9375 30.894531 L 72.6875 30.894531 L 75.46875 37.175781 L 73.621094 37.175781 L 71.449219 31.765625 L 72.148438 31.765625 L 69.976562 37.175781 Z M 69.683594 35.957031 L 70.140625 34.644531 L 73.207031 34.644531 L 73.664062 35.957031 Z M 69.683594 35.957031 " fill-opacity="1" fill-rule="nonzero"/><path fill="#ffffff" d="M 83.144531 37.175781 L 83.144531 30.894531 L 86.015625 30.894531 C 86.589844 30.894531 87.085938 30.988281 87.5 31.175781 C 87.917969 31.359375 88.238281 31.628906 88.464844 31.976562 C 88.691406 32.328125 88.804688 32.742188 88.804688 33.21875 C 88.804688 33.691406 88.691406 34.101562 88.464844 34.445312 C 88.238281 34.789062 87.917969 35.050781 87.5 35.234375 C 87.085938 35.414062 86.589844 35.507812 86.015625 35.507812 L 84.132812 35.507812 L 84.921875 34.761719 L 84.921875 37.175781 Z M 84.921875 34.949219 L 84.132812 34.132812 L 85.910156 34.132812 C 86.277344 34.132812 86.554688 34.054688 86.738281 33.890625 C 86.921875 33.730469 87.011719 33.507812 87.011719 33.21875 C 87.011719 32.925781 86.921875 32.699219 86.738281 32.539062 C 86.554688 32.375 86.277344 32.296875 85.910156 32.296875 L 84.132812 32.296875 L 84.921875 31.480469 Z M 87.03125 37.175781 L 85.46875 34.886719 L 87.363281 34.886719 L 88.929688 37.175781 Z M 87.03125 37.175781 " fill-opacity="1" fill-rule="nonzero"/><path fill="#ffffff" d="M 96.957031 37.175781 L 96.957031 30.894531 L 98.421875 30.894531 L 101.023438 35.167969 L 100.25 35.167969 L 102.78125 30.894531 L 104.242188 30.894531 L 104.261719 37.175781 L 102.628906 37.175781 L 102.609375 33.382812 L 102.886719 33.382812 L 100.996094 36.554688 L 100.207031 36.554688 L 98.257812 33.382812 L 98.601562 33.382812 L 98.601562 37.175781 Z M 96.957031 37.175781 " fill-opacity="1" fill-rule="nonzero"/><path fill="#ffffff" d="M 111.9375 37.175781 L 114.710938 30.894531 L 116.457031 30.894531 L 119.238281 37.175781 L 117.390625 37.175781 L 115.21875 31.765625 L 115.921875 31.765625 L 113.75 37.175781 Z M 113.453125 35.957031 L 113.910156 34.644531 L 116.980469 34.644531 L 117.4375 35.957031 Z M 113.453125 35.957031 " fill-opacity="1" fill-rule="nonzero"/><path fill="#ffffff" d="M 129.957031 37.300781 C 129.460938 37.300781 129.003906 37.222656 128.582031 37.0625 C 128.160156 36.90625 127.792969 36.679688 127.488281 36.386719 C 127.179688 36.09375 126.9375 35.746094 126.765625 35.351562 C 126.589844 34.953125 126.503906 34.515625 126.503906 34.035156 C 126.503906 33.558594 126.589844 33.121094 126.765625 32.722656 C 126.9375 32.324219 127.179688 31.980469 127.488281 31.6875 C 127.792969 31.394531 128.160156 31.167969 128.582031 31.007812 C 129.003906 30.851562 129.460938 30.769531 129.957031 30.769531 C 130.539062 30.769531 131.054688 30.871094 131.511719 31.074219 C 131.972656 31.277344 132.351562 31.570312 132.65625 31.953125 L 131.527344 32.976562 C 131.324219 32.738281 131.101562 32.554688 130.859375 32.429688 C 130.617188 32.304688 130.347656 32.242188 130.046875 32.242188 C 129.789062 32.242188 129.554688 32.285156 129.339844 32.367188 C 129.125 32.449219 128.941406 32.570312 128.785156 32.730469 C 128.632812 32.890625 128.515625 33.078125 128.429688 33.300781 C 128.339844 33.519531 128.296875 33.765625 128.296875 34.035156 C 128.296875 34.304688 128.339844 34.550781 128.429688 34.769531 C 128.515625 34.992188 128.632812 35.183594 128.785156 35.339844 C 128.941406 35.5 129.125 35.621094 129.339844 35.703125 C 129.554688 35.789062 129.789062 35.828125 130.046875 35.828125 C 130.347656 35.828125 130.617188 35.765625 130.859375 35.640625 C 131.101562 35.515625 131.324219 35.332031 131.527344 35.09375 L 132.65625 36.117188 C 132.351562 36.492188 131.972656 36.785156 131.511719 36.992188 C 131.054688 37.199219 130.539062 37.300781 129.957031 37.300781 Z M 129.957031 37.300781 " fill-opacity="1" fill-rule="nonzero"/><path fill="#ffffff" d="M 142.183594 37.175781 L 142.183594 34.519531 L 142.597656 35.585938 L 139.789062 30.894531 L 141.664062 30.894531 L 143.691406 34.296875 L 142.605469 34.296875 L 144.640625 30.894531 L 146.363281 30.894531 L 143.5625 35.585938 L 143.957031 34.519531 L 143.957031 37.175781 Z M 142.183594 37.175781 " fill-opacity="1" fill-rule="nonzero"/><path fill="#ffffff" d="M 52.230469 21.652344 C 52.039062 22.046875 51.820312 22.386719 51.566406 22.667969 C 51.007812 23.277344 50.183594 23.585938 49.09375 23.585938 C 47.972656 23.585938 47.097656 23.207031 46.480469 22.449219 C 45.859375 21.691406 45.550781 20.289062 45.550781 18.25 C 45.550781 16.597656 45.808594 15.390625 46.328125 14.621094 C 47.015625 13.582031 48.003906 13.0625 49.296875 13.0625 C 49.867188 13.0625 50.382812 13.179688 50.84375 13.414062 C 51.300781 13.648438 51.691406 13.984375 52.011719 14.417969 C 52.050781 14.472656 52.089844 14.535156 52.128906 14.601562 L 57.285156 14.601562 L 57.59375 14.53125 C 56.949219 12.589844 55.960938 11.148438 54.632812 10.207031 C 53.304688 9.269531 51.480469 8.800781 49.15625 8.800781 C 46.191406 8.800781 43.894531 9.617188 42.273438 11.257812 C 40.652344 12.894531 39.84375 15.238281 39.84375 18.285156 C 39.84375 20.574219 40.300781 22.449219 41.222656 23.914062 C 42.148438 25.378906 43.242188 26.40625 44.511719 26.984375 C 45.78125 27.570312 47.417969 27.859375 49.421875 27.859375 C 51.070312 27.859375 52.433594 27.621094 53.5 27.144531 C 54.570312 26.664062 55.464844 25.957031 56.183594 25.019531 C 56.882812 24.113281 57.394531 22.988281 57.730469 21.652344 Z M 52.230469 21.652344 " fill-opacity="1" fill-rule="nonzero"/><path fill="#ffffff" d="M 58.792969 27.542969 L 58.792969 9.113281 L 68.285156 9.113281 C 70.046875 9.113281 71.390625 9.265625 72.320312 9.566406 C 73.25 9.867188 74 10.429688 74.570312 11.246094 C 75.140625 12.0625 75.425781 13.058594 75.425781 14.230469 C 75.425781 15.253906 75.207031 16.136719 74.773438 16.878906 C 74.335938 17.621094 73.738281 18.222656 72.972656 18.683594 C 72.488281 18.976562 71.820312 19.21875 70.972656 19.410156 C 71.652344 19.636719 72.144531 19.863281 72.457031 20.089844 C 72.664062 20.242188 72.96875 20.566406 73.367188 21.058594 C 73.765625 21.554688 74.03125 21.9375 74.164062 22.203125 L 76.921875 27.546875 L 70.488281 27.546875 L 67.445312 21.914062 C 67.058594 21.183594 66.714844 20.710938 66.414062 20.492188 C 66 20.207031 65.535156 20.066406 65.015625 20.066406 L 64.515625 20.066406 L 64.515625 27.542969 Z M 64.515625 16.582031 L 66.914062 16.582031 C 67.175781 16.582031 67.679688 16.5 68.425781 16.332031 C 68.800781 16.253906 69.109375 16.0625 69.347656 15.753906 C 69.585938 15.441406 69.707031 15.085938 69.707031 14.683594 C 69.707031 14.089844 69.519531 13.632812 69.140625 13.3125 C 68.761719 12.996094 68.054688 12.835938 67.015625 12.835938 L 64.515625 12.835938 Z M 64.515625 16.582031 " fill-opacity="1" fill-rule="nonzero"/><path fill="#ffffff" d="M 77.644531 9.113281 L 92.90625 9.113281 L 92.90625 13.050781 L 83.351562 13.050781 L 83.351562 15.980469 L 92.214844 15.980469 L 92.214844 19.738281 L 83.351562 19.738281 L 83.351562 23.371094 L 93.179688 23.371094 L 93.179688 27.542969 L 77.644531 27.542969 Z M 77.644531 9.113281 " fill-opacity="1" fill-rule="nonzero"/><path fill="#ffffff" d="M 123.214844 24.503906 L 116.75 24.503906 L 115.851562 27.542969 L 110.035156 27.542969 L 116.964844 9.113281 L 123.175781 9.113281 L 130.101562 27.542969 L 124.136719 27.542969 Z M 122.035156 20.515625 L 120 13.890625 L 117.988281 20.515625 Z M 122.035156 20.515625 " fill-opacity="1" fill-rule="nonzero"/><path fill="#ffffff" d="M 145.101562 18.820312 C 144.613281 18.007812 143.828125 17.328125 142.75 16.777344 C 141.902344 16.34375 140.613281 15.917969 138.894531 15.492188 C 138.792969 15.492188 138.703125 15.46875 138.628906 15.429688 C 138.238281 15.335938 137.835938 15.242188 137.402344 15.148438 C 136.394531 14.9375 135.757812 14.714844 135.492188 14.46875 C 135.214844 14.234375 135.074219 13.972656 135.074219 13.679688 C 135.074219 13.277344 135.242188 12.933594 135.578125 12.652344 C 135.914062 12.371094 136.414062 12.230469 137.074219 12.230469 C 137.878906 12.230469 138.511719 12.421875 138.96875 12.796875 C 139.351562 13.113281 139.621094 13.59375 139.785156 14.230469 L 145.222656 14.230469 C 144.980469 12.355469 144.25 10.980469 143.027344 10.113281 C 141.792969 9.238281 139.996094 8.800781 137.640625 8.800781 C 135.722656 8.800781 134.210938 9.042969 133.109375 9.523438 C 132.007812 10.003906 131.179688 10.667969 130.632812 11.507812 C 130.082031 12.351562 129.808594 13.246094 129.808594 14.191406 C 129.808594 15.636719 130.34375 16.820312 131.417969 17.75 C 132.480469 18.683594 134.261719 19.425781 136.761719 19.988281 C 138.285156 20.324219 139.257812 20.679688 139.675781 21.058594 C 140.097656 21.433594 140.304688 21.863281 140.304688 22.339844 C 140.304688 22.84375 140.085938 23.285156 139.644531 23.667969 C 139.207031 24.046875 138.578125 24.238281 137.765625 24.238281 C 136.675781 24.238281 135.839844 23.867188 135.25 23.121094 C 134.949219 22.730469 134.734375 22.195312 134.601562 21.507812 L 129.125 21.507812 C 129.292969 23.339844 129.972656 24.855469 131.167969 26.046875 C 132.371094 27.253906 134.542969 27.859375 137.675781 27.859375 C 139.464844 27.859375 140.941406 27.601562 142.117188 27.085938 C 143.289062 26.570312 144.203125 25.816406 144.855469 24.816406 C 145.511719 23.820312 145.835938 22.730469 145.835938 21.546875 C 145.835938 20.542969 145.59375 19.632812 145.101562 18.820312 Z M 145.101562 18.820312 " fill-opacity="1" fill-rule="nonzero"/><path fill="#ffffff" d="M 94.371094 8.953125 L 102.90625 8.953125 C 104.589844 8.953125 105.949219 9.179688 106.984375 9.636719 C 108.019531 10.09375 108.875 10.75 109.550781 11.601562 C 110.226562 12.457031 110.71875 13.449219 111.023438 14.582031 C 111.328125 15.714844 111.480469 16.917969 111.480469 18.183594 C 111.480469 20.171875 111.253906 21.714844 110.800781 22.808594 C 110.347656 23.902344 109.71875 24.820312 108.917969 25.558594 C 108.113281 26.300781 107.25 26.792969 106.328125 27.039062 C 105.070312 27.375 103.929688 27.546875 102.90625 27.546875 L 94.371094 27.546875 Z M 100.117188 13.164062 L 100.117188 23.320312 L 101.523438 23.320312 C 102.722656 23.320312 103.578125 23.1875 104.085938 22.921875 C 104.59375 22.65625 104.988281 22.191406 105.277344 21.527344 C 105.566406 20.863281 105.707031 19.789062 105.707031 18.300781 C 105.707031 16.328125 105.386719 14.980469 104.746094 14.253906 C 104.101562 13.527344 103.035156 13.164062 101.546875 13.164062 Z M 100.117188 13.164062 " fill-opacity="1" fill-rule="nonzero"/></svg>